<mxfile host="app.diagrams.net" modified="2023-07-21T01:50:09.091Z" agent="Mozilla/5.0 (Windows NT 10.0; Win64; x64) AppleWebKit/537.36 (KHTML, like Gecko) Chrome/114.0.0.0 Safari/537.36 Edg/114.0.1823.82" etag="exdcc10m27zj1bE-FRwj" version="21.6.5" type="github">
  <diagram id="R2lEEEUBdFMjLlhIrx00" name="Page-1">
    <mxGraphModel dx="2842" dy="2246" grid="1" gridSize="10" guides="1" tooltips="1" connect="1" arrows="1" fold="1" page="1" pageScale="1" pageWidth="850" pageHeight="1100" math="0" shadow="0" extFonts="Permanent Marker^https://fonts.googleapis.com/css?family=Permanent+Marker">
      <root>
        <mxCell id="0" />
        <mxCell id="1" parent="0" />
        <mxCell id="C-vyLk0tnHw3VtMMgP7b-1" value="" style="edgeStyle=entityRelationEdgeStyle;endArrow=ERzeroToMany;startArrow=ERone;endFill=1;startFill=0;exitX=1;exitY=0.5;exitDx=0;exitDy=0;" parent="1" source="jd8cTnZOVGz8yn4IlZgi-312" target="jd8cTnZOVGz8yn4IlZgi-211" edge="1">
          <mxGeometry width="100" height="100" relative="1" as="geometry">
            <mxPoint x="480" y="1475.26" as="sourcePoint" />
            <mxPoint x="474.6800000000003" y="490.0000000000002" as="targetPoint" />
          </mxGeometry>
        </mxCell>
        <mxCell id="jd8cTnZOVGz8yn4IlZgi-1" value="Modelo_IW33_VisualizarordenMantenimiento_Cabecera" style="shape=table;startSize=30;container=1;collapsible=1;childLayout=tableLayout;fixedRows=1;rowLines=0;fontStyle=1;align=center;resizeLast=1;fillColor=#e51400;fontColor=#ffffff;strokeColor=#B20000;rounded=1;" vertex="1" parent="1">
          <mxGeometry x="480" y="-300" width="340" height="1200" as="geometry" />
        </mxCell>
        <mxCell id="jd8cTnZOVGz8yn4IlZgi-2" value="" style="shape=tableRow;horizontal=0;startSize=0;swimlaneHead=0;swimlaneBody=0;fillColor=none;collapsible=0;dropTarget=0;points=[[0,0.5],[1,0.5]];portConstraint=eastwest;strokeColor=inherit;top=0;left=0;right=0;bottom=0;" vertex="1" parent="jd8cTnZOVGz8yn4IlZgi-1">
          <mxGeometry y="30" width="340" height="30" as="geometry" />
        </mxCell>
        <mxCell id="jd8cTnZOVGz8yn4IlZgi-3" value="" style="shape=partialRectangle;overflow=hidden;connectable=0;fillColor=none;strokeColor=inherit;top=0;left=0;bottom=0;right=0;" vertex="1" parent="jd8cTnZOVGz8yn4IlZgi-2">
          <mxGeometry width="30" height="30" as="geometry">
            <mxRectangle width="30" height="30" as="alternateBounds" />
          </mxGeometry>
        </mxCell>
        <mxCell id="jd8cTnZOVGz8yn4IlZgi-4" value="AUART" style="shape=partialRectangle;overflow=hidden;connectable=0;fillColor=#dae8fc;align=left;strokeColor=#6c8ebf;top=0;left=0;bottom=0;right=0;spacingLeft=6;" vertex="1" parent="jd8cTnZOVGz8yn4IlZgi-2">
          <mxGeometry x="30" width="310" height="30" as="geometry">
            <mxRectangle width="310" height="30" as="alternateBounds" />
          </mxGeometry>
        </mxCell>
        <mxCell id="jd8cTnZOVGz8yn4IlZgi-5" value="" style="shape=tableRow;horizontal=0;startSize=0;swimlaneHead=0;swimlaneBody=0;fillColor=none;collapsible=0;dropTarget=0;points=[[0,0.5],[1,0.5]];portConstraint=eastwest;strokeColor=inherit;top=0;left=0;right=0;bottom=0;" vertex="1" parent="jd8cTnZOVGz8yn4IlZgi-1">
          <mxGeometry y="60" width="340" height="30" as="geometry" />
        </mxCell>
        <mxCell id="jd8cTnZOVGz8yn4IlZgi-6" value="" style="shape=partialRectangle;overflow=hidden;connectable=0;fillColor=none;strokeColor=inherit;top=0;left=0;bottom=0;right=0;" vertex="1" parent="jd8cTnZOVGz8yn4IlZgi-5">
          <mxGeometry width="30" height="30" as="geometry">
            <mxRectangle width="30" height="30" as="alternateBounds" />
          </mxGeometry>
        </mxCell>
        <mxCell id="jd8cTnZOVGz8yn4IlZgi-7" value="AUFNR" style="shape=partialRectangle;overflow=hidden;connectable=0;fillColor=#dae8fc;align=left;strokeColor=#6c8ebf;top=0;left=0;bottom=0;right=0;spacingLeft=6;" vertex="1" parent="jd8cTnZOVGz8yn4IlZgi-5">
          <mxGeometry x="30" width="310" height="30" as="geometry">
            <mxRectangle width="310" height="30" as="alternateBounds" />
          </mxGeometry>
        </mxCell>
        <mxCell id="jd8cTnZOVGz8yn4IlZgi-8" value="" style="shape=tableRow;horizontal=0;startSize=0;swimlaneHead=0;swimlaneBody=0;fillColor=none;collapsible=0;dropTarget=0;points=[[0,0.5],[1,0.5]];portConstraint=eastwest;strokeColor=inherit;top=0;left=0;right=0;bottom=0;" vertex="1" parent="jd8cTnZOVGz8yn4IlZgi-1">
          <mxGeometry y="90" width="340" height="30" as="geometry" />
        </mxCell>
        <mxCell id="jd8cTnZOVGz8yn4IlZgi-9" value="" style="shape=partialRectangle;overflow=hidden;connectable=0;fillColor=none;strokeColor=inherit;top=0;left=0;bottom=0;right=0;" vertex="1" parent="jd8cTnZOVGz8yn4IlZgi-8">
          <mxGeometry width="30" height="30" as="geometry">
            <mxRectangle width="30" height="30" as="alternateBounds" />
          </mxGeometry>
        </mxCell>
        <mxCell id="jd8cTnZOVGz8yn4IlZgi-10" value="KTEXT" style="shape=partialRectangle;overflow=hidden;connectable=0;fillColor=#bac8d3;align=left;strokeColor=#23445d;top=0;left=0;bottom=0;right=0;spacingLeft=6;" vertex="1" parent="jd8cTnZOVGz8yn4IlZgi-8">
          <mxGeometry x="30" width="310" height="30" as="geometry">
            <mxRectangle width="310" height="30" as="alternateBounds" />
          </mxGeometry>
        </mxCell>
        <mxCell id="jd8cTnZOVGz8yn4IlZgi-11" value="" style="shape=tableRow;horizontal=0;startSize=0;swimlaneHead=0;swimlaneBody=0;fillColor=none;collapsible=0;dropTarget=0;points=[[0,0.5],[1,0.5]];portConstraint=eastwest;strokeColor=inherit;top=0;left=0;right=0;bottom=0;" vertex="1" parent="jd8cTnZOVGz8yn4IlZgi-1">
          <mxGeometry y="120" width="340" height="30" as="geometry" />
        </mxCell>
        <mxCell id="jd8cTnZOVGz8yn4IlZgi-12" value="" style="shape=partialRectangle;overflow=hidden;connectable=0;fillColor=none;strokeColor=inherit;top=0;left=0;bottom=0;right=0;" vertex="1" parent="jd8cTnZOVGz8yn4IlZgi-11">
          <mxGeometry width="30" height="30" as="geometry">
            <mxRectangle width="30" height="30" as="alternateBounds" />
          </mxGeometry>
        </mxCell>
        <mxCell id="jd8cTnZOVGz8yn4IlZgi-13" value="STSMA" style="shape=partialRectangle;overflow=hidden;connectable=0;fillColor=#ffe6cc;align=left;strokeColor=#d79b00;top=0;left=0;bottom=0;right=0;spacingLeft=6;" vertex="1" parent="jd8cTnZOVGz8yn4IlZgi-11">
          <mxGeometry x="30" width="310" height="30" as="geometry">
            <mxRectangle width="310" height="30" as="alternateBounds" />
          </mxGeometry>
        </mxCell>
        <mxCell id="jd8cTnZOVGz8yn4IlZgi-14" value="" style="shape=tableRow;horizontal=0;startSize=0;swimlaneHead=0;swimlaneBody=0;fillColor=none;collapsible=0;dropTarget=0;points=[[0,0.5],[1,0.5]];portConstraint=eastwest;strokeColor=inherit;top=0;left=0;right=0;bottom=0;" vertex="1" parent="jd8cTnZOVGz8yn4IlZgi-1">
          <mxGeometry y="150" width="340" height="30" as="geometry" />
        </mxCell>
        <mxCell id="jd8cTnZOVGz8yn4IlZgi-15" value="" style="shape=partialRectangle;overflow=hidden;connectable=0;fillColor=none;strokeColor=inherit;top=0;left=0;bottom=0;right=0;" vertex="1" parent="jd8cTnZOVGz8yn4IlZgi-14">
          <mxGeometry width="30" height="30" as="geometry">
            <mxRectangle width="30" height="30" as="alternateBounds" />
          </mxGeometry>
        </mxCell>
        <mxCell id="jd8cTnZOVGz8yn4IlZgi-16" value="ESTAT" style="shape=partialRectangle;overflow=hidden;connectable=0;fillColor=#ffe6cc;align=left;strokeColor=#d79b00;top=0;left=0;bottom=0;right=0;spacingLeft=6;" vertex="1" parent="jd8cTnZOVGz8yn4IlZgi-14">
          <mxGeometry x="30" width="310" height="30" as="geometry">
            <mxRectangle width="310" height="30" as="alternateBounds" />
          </mxGeometry>
        </mxCell>
        <mxCell id="jd8cTnZOVGz8yn4IlZgi-17" value="" style="shape=tableRow;horizontal=0;startSize=0;swimlaneHead=0;swimlaneBody=0;fillColor=none;collapsible=0;dropTarget=0;points=[[0,0.5],[1,0.5]];portConstraint=eastwest;strokeColor=inherit;top=0;left=0;right=0;bottom=0;" vertex="1" parent="jd8cTnZOVGz8yn4IlZgi-1">
          <mxGeometry y="180" width="340" height="30" as="geometry" />
        </mxCell>
        <mxCell id="jd8cTnZOVGz8yn4IlZgi-18" value="" style="shape=partialRectangle;overflow=hidden;connectable=0;fillColor=none;strokeColor=inherit;top=0;left=0;bottom=0;right=0;" vertex="1" parent="jd8cTnZOVGz8yn4IlZgi-17">
          <mxGeometry width="30" height="30" as="geometry">
            <mxRectangle width="30" height="30" as="alternateBounds" />
          </mxGeometry>
        </mxCell>
        <mxCell id="jd8cTnZOVGz8yn4IlZgi-19" value="INGPR" style="shape=partialRectangle;overflow=hidden;connectable=0;fillColor=#ffcccc;align=left;strokeColor=#36393d;top=0;left=0;bottom=0;right=0;spacingLeft=6;" vertex="1" parent="jd8cTnZOVGz8yn4IlZgi-17">
          <mxGeometry x="30" width="310" height="30" as="geometry">
            <mxRectangle width="310" height="30" as="alternateBounds" />
          </mxGeometry>
        </mxCell>
        <mxCell id="jd8cTnZOVGz8yn4IlZgi-20" value="" style="shape=tableRow;horizontal=0;startSize=0;swimlaneHead=0;swimlaneBody=0;fillColor=none;collapsible=0;dropTarget=0;points=[[0,0.5],[1,0.5]];portConstraint=eastwest;strokeColor=inherit;top=0;left=0;right=0;bottom=0;" vertex="1" parent="jd8cTnZOVGz8yn4IlZgi-1">
          <mxGeometry y="210" width="340" height="30" as="geometry" />
        </mxCell>
        <mxCell id="jd8cTnZOVGz8yn4IlZgi-21" value="" style="shape=partialRectangle;overflow=hidden;connectable=0;fillColor=none;strokeColor=inherit;top=0;left=0;bottom=0;right=0;" vertex="1" parent="jd8cTnZOVGz8yn4IlZgi-20">
          <mxGeometry width="30" height="30" as="geometry">
            <mxRectangle width="30" height="30" as="alternateBounds" />
          </mxGeometry>
        </mxCell>
        <mxCell id="jd8cTnZOVGz8yn4IlZgi-22" value="IWERK" style="shape=partialRectangle;overflow=hidden;connectable=0;fillColor=#ffcccc;align=left;strokeColor=#36393d;top=0;left=0;bottom=0;right=0;spacingLeft=6;" vertex="1" parent="jd8cTnZOVGz8yn4IlZgi-20">
          <mxGeometry x="30" width="310" height="30" as="geometry">
            <mxRectangle width="310" height="30" as="alternateBounds" />
          </mxGeometry>
        </mxCell>
        <mxCell id="jd8cTnZOVGz8yn4IlZgi-23" value="" style="shape=tableRow;horizontal=0;startSize=0;swimlaneHead=0;swimlaneBody=0;fillColor=none;collapsible=0;dropTarget=0;points=[[0,0.5],[1,0.5]];portConstraint=eastwest;strokeColor=inherit;top=0;left=0;right=0;bottom=0;" vertex="1" parent="jd8cTnZOVGz8yn4IlZgi-1">
          <mxGeometry y="240" width="340" height="30" as="geometry" />
        </mxCell>
        <mxCell id="jd8cTnZOVGz8yn4IlZgi-24" value="" style="shape=partialRectangle;overflow=hidden;connectable=0;fillColor=none;strokeColor=inherit;top=0;left=0;bottom=0;right=0;" vertex="1" parent="jd8cTnZOVGz8yn4IlZgi-23">
          <mxGeometry width="30" height="30" as="geometry">
            <mxRectangle width="30" height="30" as="alternateBounds" />
          </mxGeometry>
        </mxCell>
        <mxCell id="jd8cTnZOVGz8yn4IlZgi-25" value="INNAM" style="shape=partialRectangle;overflow=hidden;connectable=0;fillColor=#ffcc99;align=left;strokeColor=#36393d;top=0;left=0;bottom=0;right=0;spacingLeft=6;" vertex="1" parent="jd8cTnZOVGz8yn4IlZgi-23">
          <mxGeometry x="30" width="310" height="30" as="geometry">
            <mxRectangle width="310" height="30" as="alternateBounds" />
          </mxGeometry>
        </mxCell>
        <mxCell id="jd8cTnZOVGz8yn4IlZgi-26" value="" style="shape=tableRow;horizontal=0;startSize=0;swimlaneHead=0;swimlaneBody=0;fillColor=none;collapsible=0;dropTarget=0;points=[[0,0.5],[1,0.5]];portConstraint=eastwest;strokeColor=inherit;top=0;left=0;right=0;bottom=0;" vertex="1" parent="jd8cTnZOVGz8yn4IlZgi-1">
          <mxGeometry y="270" width="340" height="30" as="geometry" />
        </mxCell>
        <mxCell id="jd8cTnZOVGz8yn4IlZgi-27" value="" style="shape=partialRectangle;overflow=hidden;connectable=0;fillColor=none;strokeColor=inherit;top=0;left=0;bottom=0;right=0;" vertex="1" parent="jd8cTnZOVGz8yn4IlZgi-26">
          <mxGeometry width="30" height="30" as="geometry">
            <mxRectangle width="30" height="30" as="alternateBounds" />
          </mxGeometry>
        </mxCell>
        <mxCell id="jd8cTnZOVGz8yn4IlZgi-28" value="GEWRK" style="shape=partialRectangle;overflow=hidden;connectable=0;fillColor=#ffcccc;align=left;strokeColor=#36393d;top=0;left=0;bottom=0;right=0;spacingLeft=6;" vertex="1" parent="jd8cTnZOVGz8yn4IlZgi-26">
          <mxGeometry x="30" width="310" height="30" as="geometry">
            <mxRectangle width="310" height="30" as="alternateBounds" />
          </mxGeometry>
        </mxCell>
        <mxCell id="jd8cTnZOVGz8yn4IlZgi-29" value="" style="shape=tableRow;horizontal=0;startSize=0;swimlaneHead=0;swimlaneBody=0;fillColor=none;collapsible=0;dropTarget=0;points=[[0,0.5],[1,0.5]];portConstraint=eastwest;strokeColor=inherit;top=0;left=0;right=0;bottom=0;" vertex="1" parent="jd8cTnZOVGz8yn4IlZgi-1">
          <mxGeometry y="300" width="340" height="30" as="geometry" />
        </mxCell>
        <mxCell id="jd8cTnZOVGz8yn4IlZgi-30" value="" style="shape=partialRectangle;overflow=hidden;connectable=0;fillColor=none;strokeColor=inherit;top=0;left=0;bottom=0;right=0;" vertex="1" parent="jd8cTnZOVGz8yn4IlZgi-29">
          <mxGeometry width="30" height="30" as="geometry">
            <mxRectangle width="30" height="30" as="alternateBounds" />
          </mxGeometry>
        </mxCell>
        <mxCell id="jd8cTnZOVGz8yn4IlZgi-31" value="WAWRK" style="shape=partialRectangle;overflow=hidden;connectable=0;fillColor=#e1d5e7;align=left;strokeColor=#9673a6;top=0;left=0;bottom=0;right=0;spacingLeft=6;" vertex="1" parent="jd8cTnZOVGz8yn4IlZgi-29">
          <mxGeometry x="30" width="310" height="30" as="geometry">
            <mxRectangle width="310" height="30" as="alternateBounds" />
          </mxGeometry>
        </mxCell>
        <mxCell id="jd8cTnZOVGz8yn4IlZgi-32" value="" style="shape=tableRow;horizontal=0;startSize=0;swimlaneHead=0;swimlaneBody=0;fillColor=none;collapsible=0;dropTarget=0;points=[[0,0.5],[1,0.5]];portConstraint=eastwest;strokeColor=inherit;top=0;left=0;right=0;bottom=0;" vertex="1" parent="jd8cTnZOVGz8yn4IlZgi-1">
          <mxGeometry y="330" width="340" height="30" as="geometry" />
        </mxCell>
        <mxCell id="jd8cTnZOVGz8yn4IlZgi-33" value="" style="shape=partialRectangle;overflow=hidden;connectable=0;fillColor=none;strokeColor=inherit;top=0;left=0;bottom=0;right=0;" vertex="1" parent="jd8cTnZOVGz8yn4IlZgi-32">
          <mxGeometry width="30" height="30" as="geometry">
            <mxRectangle width="30" height="30" as="alternateBounds" />
          </mxGeometry>
        </mxCell>
        <mxCell id="jd8cTnZOVGz8yn4IlZgi-34" value="KTEXT" style="shape=partialRectangle;overflow=hidden;connectable=0;fillColor=#bac8d3;align=left;strokeColor=#23445d;top=0;left=0;bottom=0;right=0;spacingLeft=6;" vertex="1" parent="jd8cTnZOVGz8yn4IlZgi-32">
          <mxGeometry x="30" width="310" height="30" as="geometry">
            <mxRectangle width="310" height="30" as="alternateBounds" />
          </mxGeometry>
        </mxCell>
        <mxCell id="jd8cTnZOVGz8yn4IlZgi-35" value="" style="shape=tableRow;horizontal=0;startSize=0;swimlaneHead=0;swimlaneBody=0;fillColor=none;collapsible=0;dropTarget=0;points=[[0,0.5],[1,0.5]];portConstraint=eastwest;strokeColor=inherit;top=0;left=0;right=0;bottom=0;" vertex="1" parent="jd8cTnZOVGz8yn4IlZgi-1">
          <mxGeometry y="360" width="340" height="30" as="geometry" />
        </mxCell>
        <mxCell id="jd8cTnZOVGz8yn4IlZgi-36" value="" style="shape=partialRectangle;overflow=hidden;connectable=0;fillColor=none;strokeColor=inherit;top=0;left=0;bottom=0;right=0;" vertex="1" parent="jd8cTnZOVGz8yn4IlZgi-35">
          <mxGeometry width="30" height="30" as="geometry">
            <mxRectangle width="30" height="30" as="alternateBounds" />
          </mxGeometry>
        </mxCell>
        <mxCell id="jd8cTnZOVGz8yn4IlZgi-37" value="QMNUM" style="shape=partialRectangle;overflow=hidden;connectable=0;fillColor=#ffcccc;align=left;strokeColor=#36393d;top=0;left=0;bottom=0;right=0;spacingLeft=6;" vertex="1" parent="jd8cTnZOVGz8yn4IlZgi-35">
          <mxGeometry x="30" width="310" height="30" as="geometry">
            <mxRectangle width="310" height="30" as="alternateBounds" />
          </mxGeometry>
        </mxCell>
        <mxCell id="jd8cTnZOVGz8yn4IlZgi-38" value="" style="shape=tableRow;horizontal=0;startSize=0;swimlaneHead=0;swimlaneBody=0;fillColor=none;collapsible=0;dropTarget=0;points=[[0,0.5],[1,0.5]];portConstraint=eastwest;strokeColor=inherit;top=0;left=0;right=0;bottom=0;" vertex="1" parent="jd8cTnZOVGz8yn4IlZgi-1">
          <mxGeometry y="390" width="340" height="30" as="geometry" />
        </mxCell>
        <mxCell id="jd8cTnZOVGz8yn4IlZgi-39" value="" style="shape=partialRectangle;overflow=hidden;connectable=0;fillColor=none;strokeColor=inherit;top=0;left=0;bottom=0;right=0;" vertex="1" parent="jd8cTnZOVGz8yn4IlZgi-38">
          <mxGeometry width="30" height="30" as="geometry">
            <mxRectangle width="30" height="30" as="alternateBounds" />
          </mxGeometry>
        </mxCell>
        <mxCell id="jd8cTnZOVGz8yn4IlZgi-40" value="USER4" style="shape=partialRectangle;overflow=hidden;connectable=0;fillColor=#e1d5e7;align=left;strokeColor=#9673a6;top=0;left=0;bottom=0;right=0;spacingLeft=6;" vertex="1" parent="jd8cTnZOVGz8yn4IlZgi-38">
          <mxGeometry x="30" width="310" height="30" as="geometry">
            <mxRectangle width="310" height="30" as="alternateBounds" />
          </mxGeometry>
        </mxCell>
        <mxCell id="jd8cTnZOVGz8yn4IlZgi-41" value="" style="shape=tableRow;horizontal=0;startSize=0;swimlaneHead=0;swimlaneBody=0;fillColor=none;collapsible=0;dropTarget=0;points=[[0,0.5],[1,0.5]];portConstraint=eastwest;strokeColor=inherit;top=0;left=0;right=0;bottom=0;" vertex="1" parent="jd8cTnZOVGz8yn4IlZgi-1">
          <mxGeometry y="420" width="340" height="30" as="geometry" />
        </mxCell>
        <mxCell id="jd8cTnZOVGz8yn4IlZgi-42" value="" style="shape=partialRectangle;overflow=hidden;connectable=0;fillColor=none;strokeColor=inherit;top=0;left=0;bottom=0;right=0;" vertex="1" parent="jd8cTnZOVGz8yn4IlZgi-41">
          <mxGeometry width="30" height="30" as="geometry">
            <mxRectangle width="30" height="30" as="alternateBounds" />
          </mxGeometry>
        </mxCell>
        <mxCell id="jd8cTnZOVGz8yn4IlZgi-43" value="WAERS" style="shape=partialRectangle;overflow=hidden;connectable=0;fillColor=#e1d5e7;align=left;strokeColor=#9673a6;top=0;left=0;bottom=0;right=0;spacingLeft=6;" vertex="1" parent="jd8cTnZOVGz8yn4IlZgi-41">
          <mxGeometry x="30" width="310" height="30" as="geometry">
            <mxRectangle width="310" height="30" as="alternateBounds" />
          </mxGeometry>
        </mxCell>
        <mxCell id="jd8cTnZOVGz8yn4IlZgi-44" value="" style="shape=tableRow;horizontal=0;startSize=0;swimlaneHead=0;swimlaneBody=0;fillColor=none;collapsible=0;dropTarget=0;points=[[0,0.5],[1,0.5]];portConstraint=eastwest;strokeColor=inherit;top=0;left=0;right=0;bottom=0;" vertex="1" parent="jd8cTnZOVGz8yn4IlZgi-1">
          <mxGeometry y="450" width="340" height="30" as="geometry" />
        </mxCell>
        <mxCell id="jd8cTnZOVGz8yn4IlZgi-45" value="" style="shape=partialRectangle;overflow=hidden;connectable=0;fillColor=none;strokeColor=inherit;top=0;left=0;bottom=0;right=0;" vertex="1" parent="jd8cTnZOVGz8yn4IlZgi-44">
          <mxGeometry width="30" height="30" as="geometry">
            <mxRectangle width="30" height="30" as="alternateBounds" />
          </mxGeometry>
        </mxCell>
        <mxCell id="jd8cTnZOVGz8yn4IlZgi-46" value="ILART" style="shape=partialRectangle;overflow=hidden;connectable=0;fillColor=#ffcccc;align=left;strokeColor=#36393d;top=0;left=0;bottom=0;right=0;spacingLeft=6;" vertex="1" parent="jd8cTnZOVGz8yn4IlZgi-44">
          <mxGeometry x="30" width="310" height="30" as="geometry">
            <mxRectangle width="310" height="30" as="alternateBounds" />
          </mxGeometry>
        </mxCell>
        <mxCell id="jd8cTnZOVGz8yn4IlZgi-47" value="" style="shape=tableRow;horizontal=0;startSize=0;swimlaneHead=0;swimlaneBody=0;fillColor=none;collapsible=0;dropTarget=0;points=[[0,0.5],[1,0.5]];portConstraint=eastwest;strokeColor=inherit;top=0;left=0;right=0;bottom=0;" vertex="1" parent="jd8cTnZOVGz8yn4IlZgi-1">
          <mxGeometry y="480" width="340" height="30" as="geometry" />
        </mxCell>
        <mxCell id="jd8cTnZOVGz8yn4IlZgi-48" value="" style="shape=partialRectangle;overflow=hidden;connectable=0;fillColor=none;strokeColor=inherit;top=0;left=0;bottom=0;right=0;" vertex="1" parent="jd8cTnZOVGz8yn4IlZgi-47">
          <mxGeometry width="30" height="30" as="geometry">
            <mxRectangle width="30" height="30" as="alternateBounds" />
          </mxGeometry>
        </mxCell>
        <mxCell id="jd8cTnZOVGz8yn4IlZgi-49" value="ILATX" style="shape=partialRectangle;overflow=hidden;connectable=0;fillColor=#d5e8d4;align=left;strokeColor=#82b366;top=0;left=0;bottom=0;right=0;spacingLeft=6;gradientColor=#97d077;" vertex="1" parent="jd8cTnZOVGz8yn4IlZgi-47">
          <mxGeometry x="30" width="310" height="30" as="geometry">
            <mxRectangle width="310" height="30" as="alternateBounds" />
          </mxGeometry>
        </mxCell>
        <mxCell id="jd8cTnZOVGz8yn4IlZgi-50" value="" style="shape=tableRow;horizontal=0;startSize=0;swimlaneHead=0;swimlaneBody=0;fillColor=none;collapsible=0;dropTarget=0;points=[[0,0.5],[1,0.5]];portConstraint=eastwest;strokeColor=inherit;top=0;left=0;right=0;bottom=0;" vertex="1" parent="jd8cTnZOVGz8yn4IlZgi-1">
          <mxGeometry y="510" width="340" height="30" as="geometry" />
        </mxCell>
        <mxCell id="jd8cTnZOVGz8yn4IlZgi-51" value="" style="shape=partialRectangle;overflow=hidden;connectable=0;fillColor=none;strokeColor=inherit;top=0;left=0;bottom=0;right=0;" vertex="1" parent="jd8cTnZOVGz8yn4IlZgi-50">
          <mxGeometry width="30" height="30" as="geometry">
            <mxRectangle width="30" height="30" as="alternateBounds" />
          </mxGeometry>
        </mxCell>
        <mxCell id="jd8cTnZOVGz8yn4IlZgi-52" value="ANLZU" style="shape=partialRectangle;overflow=hidden;connectable=0;fillColor=#fad9d5;align=left;strokeColor=#ae4132;top=0;left=0;bottom=0;right=0;spacingLeft=6;" vertex="1" parent="jd8cTnZOVGz8yn4IlZgi-50">
          <mxGeometry x="30" width="310" height="30" as="geometry">
            <mxRectangle width="310" height="30" as="alternateBounds" />
          </mxGeometry>
        </mxCell>
        <mxCell id="jd8cTnZOVGz8yn4IlZgi-53" value="" style="shape=tableRow;horizontal=0;startSize=0;swimlaneHead=0;swimlaneBody=0;fillColor=none;collapsible=0;dropTarget=0;points=[[0,0.5],[1,0.5]];portConstraint=eastwest;strokeColor=inherit;top=0;left=0;right=0;bottom=0;" vertex="1" parent="jd8cTnZOVGz8yn4IlZgi-1">
          <mxGeometry y="540" width="340" height="30" as="geometry" />
        </mxCell>
        <mxCell id="jd8cTnZOVGz8yn4IlZgi-54" value="" style="shape=partialRectangle;overflow=hidden;connectable=0;fillColor=none;strokeColor=inherit;top=0;left=0;bottom=0;right=0;" vertex="1" parent="jd8cTnZOVGz8yn4IlZgi-53">
          <mxGeometry width="30" height="30" as="geometry">
            <mxRectangle width="30" height="30" as="alternateBounds" />
          </mxGeometry>
        </mxCell>
        <mxCell id="jd8cTnZOVGz8yn4IlZgi-55" value="GSTRP" style="shape=partialRectangle;overflow=hidden;connectable=0;fillColor=#dae8fc;align=left;strokeColor=#6c8ebf;top=0;left=0;bottom=0;right=0;spacingLeft=6;" vertex="1" parent="jd8cTnZOVGz8yn4IlZgi-53">
          <mxGeometry x="30" width="310" height="30" as="geometry">
            <mxRectangle width="310" height="30" as="alternateBounds" />
          </mxGeometry>
        </mxCell>
        <mxCell id="jd8cTnZOVGz8yn4IlZgi-56" value="" style="shape=tableRow;horizontal=0;startSize=0;swimlaneHead=0;swimlaneBody=0;fillColor=none;collapsible=0;dropTarget=0;points=[[0,0.5],[1,0.5]];portConstraint=eastwest;strokeColor=inherit;top=0;left=0;right=0;bottom=0;" vertex="1" parent="jd8cTnZOVGz8yn4IlZgi-1">
          <mxGeometry y="570" width="340" height="30" as="geometry" />
        </mxCell>
        <mxCell id="jd8cTnZOVGz8yn4IlZgi-57" value="" style="shape=partialRectangle;overflow=hidden;connectable=0;fillColor=none;strokeColor=inherit;top=0;left=0;bottom=0;right=0;" vertex="1" parent="jd8cTnZOVGz8yn4IlZgi-56">
          <mxGeometry width="30" height="30" as="geometry">
            <mxRectangle width="30" height="30" as="alternateBounds" />
          </mxGeometry>
        </mxCell>
        <mxCell id="jd8cTnZOVGz8yn4IlZgi-58" value="GSTRS" style="shape=partialRectangle;overflow=hidden;connectable=0;fillColor=#dae8fc;align=left;strokeColor=#6c8ebf;top=0;left=0;bottom=0;right=0;spacingLeft=6;" vertex="1" parent="jd8cTnZOVGz8yn4IlZgi-56">
          <mxGeometry x="30" width="310" height="30" as="geometry">
            <mxRectangle width="310" height="30" as="alternateBounds" />
          </mxGeometry>
        </mxCell>
        <mxCell id="jd8cTnZOVGz8yn4IlZgi-59" value="" style="shape=tableRow;horizontal=0;startSize=0;swimlaneHead=0;swimlaneBody=0;fillColor=none;collapsible=0;dropTarget=0;points=[[0,0.5],[1,0.5]];portConstraint=eastwest;strokeColor=inherit;top=0;left=0;right=0;bottom=0;" vertex="1" parent="jd8cTnZOVGz8yn4IlZgi-1">
          <mxGeometry y="600" width="340" height="30" as="geometry" />
        </mxCell>
        <mxCell id="jd8cTnZOVGz8yn4IlZgi-60" value="" style="shape=partialRectangle;overflow=hidden;connectable=0;fillColor=none;strokeColor=inherit;top=0;left=0;bottom=0;right=0;" vertex="1" parent="jd8cTnZOVGz8yn4IlZgi-59">
          <mxGeometry width="30" height="30" as="geometry">
            <mxRectangle width="30" height="30" as="alternateBounds" />
          </mxGeometry>
        </mxCell>
        <mxCell id="jd8cTnZOVGz8yn4IlZgi-61" value="GSUZS" style="shape=partialRectangle;overflow=hidden;connectable=0;fillColor=#dae8fc;align=left;strokeColor=#6c8ebf;top=0;left=0;bottom=0;right=0;spacingLeft=6;" vertex="1" parent="jd8cTnZOVGz8yn4IlZgi-59">
          <mxGeometry x="30" width="310" height="30" as="geometry">
            <mxRectangle width="310" height="30" as="alternateBounds" />
          </mxGeometry>
        </mxCell>
        <mxCell id="jd8cTnZOVGz8yn4IlZgi-62" value="" style="shape=tableRow;horizontal=0;startSize=0;swimlaneHead=0;swimlaneBody=0;fillColor=none;collapsible=0;dropTarget=0;points=[[0,0.5],[1,0.5]];portConstraint=eastwest;strokeColor=inherit;top=0;left=0;right=0;bottom=0;" vertex="1" parent="jd8cTnZOVGz8yn4IlZgi-1">
          <mxGeometry y="630" width="340" height="30" as="geometry" />
        </mxCell>
        <mxCell id="jd8cTnZOVGz8yn4IlZgi-63" value="" style="shape=partialRectangle;overflow=hidden;connectable=0;fillColor=none;strokeColor=inherit;top=0;left=0;bottom=0;right=0;" vertex="1" parent="jd8cTnZOVGz8yn4IlZgi-62">
          <mxGeometry width="30" height="30" as="geometry">
            <mxRectangle width="30" height="30" as="alternateBounds" />
          </mxGeometry>
        </mxCell>
        <mxCell id="jd8cTnZOVGz8yn4IlZgi-64" value="GLTRS" style="shape=partialRectangle;overflow=hidden;connectable=0;fillColor=#dae8fc;align=left;strokeColor=#6c8ebf;top=0;left=0;bottom=0;right=0;spacingLeft=6;" vertex="1" parent="jd8cTnZOVGz8yn4IlZgi-62">
          <mxGeometry x="30" width="310" height="30" as="geometry">
            <mxRectangle width="310" height="30" as="alternateBounds" />
          </mxGeometry>
        </mxCell>
        <mxCell id="jd8cTnZOVGz8yn4IlZgi-65" value="" style="shape=tableRow;horizontal=0;startSize=0;swimlaneHead=0;swimlaneBody=0;fillColor=none;collapsible=0;dropTarget=0;points=[[0,0.5],[1,0.5]];portConstraint=eastwest;strokeColor=inherit;top=0;left=0;right=0;bottom=0;" vertex="1" parent="jd8cTnZOVGz8yn4IlZgi-1">
          <mxGeometry y="660" width="340" height="30" as="geometry" />
        </mxCell>
        <mxCell id="jd8cTnZOVGz8yn4IlZgi-66" value="" style="shape=partialRectangle;overflow=hidden;connectable=0;fillColor=none;strokeColor=inherit;top=0;left=0;bottom=0;right=0;" vertex="1" parent="jd8cTnZOVGz8yn4IlZgi-65">
          <mxGeometry width="30" height="30" as="geometry">
            <mxRectangle width="30" height="30" as="alternateBounds" />
          </mxGeometry>
        </mxCell>
        <mxCell id="jd8cTnZOVGz8yn4IlZgi-67" value="GLUZS" style="shape=partialRectangle;overflow=hidden;connectable=0;fillColor=#dae8fc;align=left;strokeColor=#6c8ebf;top=0;left=0;bottom=0;right=0;spacingLeft=6;" vertex="1" parent="jd8cTnZOVGz8yn4IlZgi-65">
          <mxGeometry x="30" width="310" height="30" as="geometry">
            <mxRectangle width="310" height="30" as="alternateBounds" />
          </mxGeometry>
        </mxCell>
        <mxCell id="jd8cTnZOVGz8yn4IlZgi-68" value="" style="shape=tableRow;horizontal=0;startSize=0;swimlaneHead=0;swimlaneBody=0;fillColor=none;collapsible=0;dropTarget=0;points=[[0,0.5],[1,0.5]];portConstraint=eastwest;strokeColor=inherit;top=0;left=0;right=0;bottom=0;" vertex="1" parent="jd8cTnZOVGz8yn4IlZgi-1">
          <mxGeometry y="690" width="340" height="30" as="geometry" />
        </mxCell>
        <mxCell id="jd8cTnZOVGz8yn4IlZgi-69" value="" style="shape=partialRectangle;overflow=hidden;connectable=0;fillColor=none;strokeColor=inherit;top=0;left=0;bottom=0;right=0;" vertex="1" parent="jd8cTnZOVGz8yn4IlZgi-68">
          <mxGeometry width="30" height="30" as="geometry">
            <mxRectangle width="30" height="30" as="alternateBounds" />
          </mxGeometry>
        </mxCell>
        <mxCell id="jd8cTnZOVGz8yn4IlZgi-70" value="TERKZ" style="shape=partialRectangle;overflow=hidden;connectable=0;fillColor=#dae8fc;align=left;strokeColor=#6c8ebf;top=0;left=0;bottom=0;right=0;spacingLeft=6;" vertex="1" parent="jd8cTnZOVGz8yn4IlZgi-68">
          <mxGeometry x="30" width="310" height="30" as="geometry">
            <mxRectangle width="310" height="30" as="alternateBounds" />
          </mxGeometry>
        </mxCell>
        <mxCell id="jd8cTnZOVGz8yn4IlZgi-71" value="" style="shape=tableRow;horizontal=0;startSize=0;swimlaneHead=0;swimlaneBody=0;fillColor=none;collapsible=0;dropTarget=0;points=[[0,0.5],[1,0.5]];portConstraint=eastwest;strokeColor=inherit;top=0;left=0;right=0;bottom=0;" vertex="1" parent="jd8cTnZOVGz8yn4IlZgi-1">
          <mxGeometry y="720" width="340" height="30" as="geometry" />
        </mxCell>
        <mxCell id="jd8cTnZOVGz8yn4IlZgi-72" value="" style="shape=partialRectangle;overflow=hidden;connectable=0;fillColor=none;strokeColor=inherit;top=0;left=0;bottom=0;right=0;" vertex="1" parent="jd8cTnZOVGz8yn4IlZgi-71">
          <mxGeometry width="30" height="30" as="geometry">
            <mxRectangle width="30" height="30" as="alternateBounds" />
          </mxGeometry>
        </mxCell>
        <mxCell id="jd8cTnZOVGz8yn4IlZgi-73" value="KAPVERSA" style="shape=partialRectangle;overflow=hidden;connectable=0;fillColor=#dae8fc;align=left;strokeColor=#6c8ebf;top=0;left=0;bottom=0;right=0;spacingLeft=6;" vertex="1" parent="jd8cTnZOVGz8yn4IlZgi-71">
          <mxGeometry x="30" width="310" height="30" as="geometry">
            <mxRectangle width="310" height="30" as="alternateBounds" />
          </mxGeometry>
        </mxCell>
        <mxCell id="jd8cTnZOVGz8yn4IlZgi-74" value="" style="shape=tableRow;horizontal=0;startSize=0;swimlaneHead=0;swimlaneBody=0;fillColor=none;collapsible=0;dropTarget=0;points=[[0,0.5],[1,0.5]];portConstraint=eastwest;strokeColor=inherit;top=0;left=0;right=0;bottom=0;" vertex="1" parent="jd8cTnZOVGz8yn4IlZgi-1">
          <mxGeometry y="750" width="340" height="30" as="geometry" />
        </mxCell>
        <mxCell id="jd8cTnZOVGz8yn4IlZgi-75" value="" style="shape=partialRectangle;overflow=hidden;connectable=0;fillColor=none;strokeColor=inherit;top=0;left=0;bottom=0;right=0;" vertex="1" parent="jd8cTnZOVGz8yn4IlZgi-74">
          <mxGeometry width="30" height="30" as="geometry">
            <mxRectangle width="30" height="30" as="alternateBounds" />
          </mxGeometry>
        </mxCell>
        <mxCell id="jd8cTnZOVGz8yn4IlZgi-76" value="PRIOK" style="shape=partialRectangle;overflow=hidden;connectable=0;fillColor=#fad9d5;align=left;strokeColor=#ae4132;top=0;left=0;bottom=0;right=0;spacingLeft=6;" vertex="1" parent="jd8cTnZOVGz8yn4IlZgi-74">
          <mxGeometry x="30" width="310" height="30" as="geometry">
            <mxRectangle width="310" height="30" as="alternateBounds" />
          </mxGeometry>
        </mxCell>
        <mxCell id="jd8cTnZOVGz8yn4IlZgi-77" value="" style="shape=tableRow;horizontal=0;startSize=0;swimlaneHead=0;swimlaneBody=0;fillColor=none;collapsible=0;dropTarget=0;points=[[0,0.5],[1,0.5]];portConstraint=eastwest;strokeColor=inherit;top=0;left=0;right=0;bottom=0;" vertex="1" parent="jd8cTnZOVGz8yn4IlZgi-1">
          <mxGeometry y="780" width="340" height="30" as="geometry" />
        </mxCell>
        <mxCell id="jd8cTnZOVGz8yn4IlZgi-78" value="" style="shape=partialRectangle;overflow=hidden;connectable=0;fillColor=none;strokeColor=inherit;top=0;left=0;bottom=0;right=0;" vertex="1" parent="jd8cTnZOVGz8yn4IlZgi-77">
          <mxGeometry width="30" height="30" as="geometry">
            <mxRectangle width="30" height="30" as="alternateBounds" />
          </mxGeometry>
        </mxCell>
        <mxCell id="jd8cTnZOVGz8yn4IlZgi-79" value="REVNR" style="shape=partialRectangle;overflow=hidden;connectable=0;fillColor=#fad9d5;align=left;strokeColor=#ae4132;top=0;left=0;bottom=0;right=0;spacingLeft=6;" vertex="1" parent="jd8cTnZOVGz8yn4IlZgi-77">
          <mxGeometry x="30" width="310" height="30" as="geometry">
            <mxRectangle width="310" height="30" as="alternateBounds" />
          </mxGeometry>
        </mxCell>
        <mxCell id="jd8cTnZOVGz8yn4IlZgi-80" value="" style="shape=tableRow;horizontal=0;startSize=0;swimlaneHead=0;swimlaneBody=0;fillColor=none;collapsible=0;dropTarget=0;points=[[0,0.5],[1,0.5]];portConstraint=eastwest;strokeColor=inherit;top=0;left=0;right=0;bottom=0;" vertex="1" parent="jd8cTnZOVGz8yn4IlZgi-1">
          <mxGeometry y="810" width="340" height="30" as="geometry" />
        </mxCell>
        <mxCell id="jd8cTnZOVGz8yn4IlZgi-81" value="" style="shape=partialRectangle;overflow=hidden;connectable=0;fillColor=none;strokeColor=inherit;top=0;left=0;bottom=0;right=0;" vertex="1" parent="jd8cTnZOVGz8yn4IlZgi-80">
          <mxGeometry width="30" height="30" as="geometry">
            <mxRectangle width="30" height="30" as="alternateBounds" />
          </mxGeometry>
        </mxCell>
        <mxCell id="jd8cTnZOVGz8yn4IlZgi-82" value="GSTRI" style="shape=partialRectangle;overflow=hidden;connectable=0;fillColor=#dae8fc;align=left;strokeColor=#6c8ebf;top=0;left=0;bottom=0;right=0;spacingLeft=6;" vertex="1" parent="jd8cTnZOVGz8yn4IlZgi-80">
          <mxGeometry x="30" width="310" height="30" as="geometry">
            <mxRectangle width="310" height="30" as="alternateBounds" />
          </mxGeometry>
        </mxCell>
        <mxCell id="jd8cTnZOVGz8yn4IlZgi-83" value="" style="shape=tableRow;horizontal=0;startSize=0;swimlaneHead=0;swimlaneBody=0;fillColor=none;collapsible=0;dropTarget=0;points=[[0,0.5],[1,0.5]];portConstraint=eastwest;strokeColor=inherit;top=0;left=0;right=0;bottom=0;" vertex="1" parent="jd8cTnZOVGz8yn4IlZgi-1">
          <mxGeometry y="840" width="340" height="30" as="geometry" />
        </mxCell>
        <mxCell id="jd8cTnZOVGz8yn4IlZgi-84" value="" style="shape=partialRectangle;overflow=hidden;connectable=0;fillColor=none;strokeColor=inherit;top=0;left=0;bottom=0;right=0;" vertex="1" parent="jd8cTnZOVGz8yn4IlZgi-83">
          <mxGeometry width="30" height="30" as="geometry">
            <mxRectangle width="30" height="30" as="alternateBounds" />
          </mxGeometry>
        </mxCell>
        <mxCell id="jd8cTnZOVGz8yn4IlZgi-85" value="GSUZI" style="shape=partialRectangle;overflow=hidden;connectable=0;fillColor=#dae8fc;align=left;strokeColor=#6c8ebf;top=0;left=0;bottom=0;right=0;spacingLeft=6;" vertex="1" parent="jd8cTnZOVGz8yn4IlZgi-83">
          <mxGeometry x="30" width="310" height="30" as="geometry">
            <mxRectangle width="310" height="30" as="alternateBounds" />
          </mxGeometry>
        </mxCell>
        <mxCell id="jd8cTnZOVGz8yn4IlZgi-86" value="" style="shape=tableRow;horizontal=0;startSize=0;swimlaneHead=0;swimlaneBody=0;fillColor=none;collapsible=0;dropTarget=0;points=[[0,0.5],[1,0.5]];portConstraint=eastwest;strokeColor=inherit;top=0;left=0;right=0;bottom=0;" vertex="1" parent="jd8cTnZOVGz8yn4IlZgi-1">
          <mxGeometry y="870" width="340" height="30" as="geometry" />
        </mxCell>
        <mxCell id="jd8cTnZOVGz8yn4IlZgi-87" value="" style="shape=partialRectangle;overflow=hidden;connectable=0;fillColor=none;strokeColor=inherit;top=0;left=0;bottom=0;right=0;" vertex="1" parent="jd8cTnZOVGz8yn4IlZgi-86">
          <mxGeometry width="30" height="30" as="geometry">
            <mxRectangle width="30" height="30" as="alternateBounds" />
          </mxGeometry>
        </mxCell>
        <mxCell id="jd8cTnZOVGz8yn4IlZgi-88" value="GETRI" style="shape=partialRectangle;overflow=hidden;connectable=0;fillColor=#dae8fc;align=left;strokeColor=#6c8ebf;top=0;left=0;bottom=0;right=0;spacingLeft=6;" vertex="1" parent="jd8cTnZOVGz8yn4IlZgi-86">
          <mxGeometry x="30" width="310" height="30" as="geometry">
            <mxRectangle width="310" height="30" as="alternateBounds" />
          </mxGeometry>
        </mxCell>
        <mxCell id="jd8cTnZOVGz8yn4IlZgi-89" value="" style="shape=tableRow;horizontal=0;startSize=0;swimlaneHead=0;swimlaneBody=0;fillColor=none;collapsible=0;dropTarget=0;points=[[0,0.5],[1,0.5]];portConstraint=eastwest;strokeColor=inherit;top=0;left=0;right=0;bottom=0;" vertex="1" parent="jd8cTnZOVGz8yn4IlZgi-1">
          <mxGeometry y="900" width="340" height="30" as="geometry" />
        </mxCell>
        <mxCell id="jd8cTnZOVGz8yn4IlZgi-90" value="" style="shape=partialRectangle;overflow=hidden;connectable=0;fillColor=none;strokeColor=inherit;top=0;left=0;bottom=0;right=0;" vertex="1" parent="jd8cTnZOVGz8yn4IlZgi-89">
          <mxGeometry width="30" height="30" as="geometry">
            <mxRectangle width="30" height="30" as="alternateBounds" />
          </mxGeometry>
        </mxCell>
        <mxCell id="jd8cTnZOVGz8yn4IlZgi-91" value="GEUZI" style="shape=partialRectangle;overflow=hidden;connectable=0;fillColor=#dae8fc;align=left;strokeColor=#6c8ebf;top=0;left=0;bottom=0;right=0;spacingLeft=6;" vertex="1" parent="jd8cTnZOVGz8yn4IlZgi-89">
          <mxGeometry x="30" width="310" height="30" as="geometry">
            <mxRectangle width="310" height="30" as="alternateBounds" />
          </mxGeometry>
        </mxCell>
        <mxCell id="jd8cTnZOVGz8yn4IlZgi-92" value="" style="shape=tableRow;horizontal=0;startSize=0;swimlaneHead=0;swimlaneBody=0;fillColor=none;collapsible=0;dropTarget=0;points=[[0,0.5],[1,0.5]];portConstraint=eastwest;strokeColor=inherit;top=0;left=0;right=0;bottom=0;" vertex="1" parent="jd8cTnZOVGz8yn4IlZgi-1">
          <mxGeometry y="930" width="340" height="30" as="geometry" />
        </mxCell>
        <mxCell id="jd8cTnZOVGz8yn4IlZgi-93" value="" style="shape=partialRectangle;overflow=hidden;connectable=0;fillColor=none;strokeColor=inherit;top=0;left=0;bottom=0;right=0;" vertex="1" parent="jd8cTnZOVGz8yn4IlZgi-92">
          <mxGeometry width="30" height="30" as="geometry">
            <mxRectangle width="30" height="30" as="alternateBounds" />
          </mxGeometry>
        </mxCell>
        <mxCell id="jd8cTnZOVGz8yn4IlZgi-94" value="ADDAT" style="shape=partialRectangle;overflow=hidden;connectable=0;fillColor=#fad9d5;align=left;strokeColor=#ae4132;top=0;left=0;bottom=0;right=0;spacingLeft=6;" vertex="1" parent="jd8cTnZOVGz8yn4IlZgi-92">
          <mxGeometry x="30" width="310" height="30" as="geometry">
            <mxRectangle width="310" height="30" as="alternateBounds" />
          </mxGeometry>
        </mxCell>
        <mxCell id="jd8cTnZOVGz8yn4IlZgi-95" value="" style="shape=tableRow;horizontal=0;startSize=0;swimlaneHead=0;swimlaneBody=0;fillColor=none;collapsible=0;dropTarget=0;points=[[0,0.5],[1,0.5]];portConstraint=eastwest;strokeColor=inherit;top=0;left=0;right=0;bottom=0;" vertex="1" parent="jd8cTnZOVGz8yn4IlZgi-1">
          <mxGeometry y="960" width="340" height="30" as="geometry" />
        </mxCell>
        <mxCell id="jd8cTnZOVGz8yn4IlZgi-96" value="" style="shape=partialRectangle;overflow=hidden;connectable=0;fillColor=none;strokeColor=inherit;top=0;left=0;bottom=0;right=0;" vertex="1" parent="jd8cTnZOVGz8yn4IlZgi-95">
          <mxGeometry width="30" height="30" as="geometry">
            <mxRectangle width="30" height="30" as="alternateBounds" />
          </mxGeometry>
        </mxCell>
        <mxCell id="jd8cTnZOVGz8yn4IlZgi-97" value="STVERG" style="shape=partialRectangle;overflow=hidden;connectable=0;fillColor=#b1ddf0;align=left;strokeColor=#10739e;top=0;left=0;bottom=0;right=0;spacingLeft=6;" vertex="1" parent="jd8cTnZOVGz8yn4IlZgi-95">
          <mxGeometry x="30" width="310" height="30" as="geometry">
            <mxRectangle width="310" height="30" as="alternateBounds" />
          </mxGeometry>
        </mxCell>
        <mxCell id="jd8cTnZOVGz8yn4IlZgi-98" value="" style="shape=tableRow;horizontal=0;startSize=0;swimlaneHead=0;swimlaneBody=0;fillColor=none;collapsible=0;dropTarget=0;points=[[0,0.5],[1,0.5]];portConstraint=eastwest;strokeColor=inherit;top=0;left=0;right=0;bottom=0;" vertex="1" parent="jd8cTnZOVGz8yn4IlZgi-1">
          <mxGeometry y="990" width="340" height="30" as="geometry" />
        </mxCell>
        <mxCell id="jd8cTnZOVGz8yn4IlZgi-99" value="" style="shape=partialRectangle;overflow=hidden;connectable=0;fillColor=none;strokeColor=inherit;top=0;left=0;bottom=0;right=0;" vertex="1" parent="jd8cTnZOVGz8yn4IlZgi-98">
          <mxGeometry width="30" height="30" as="geometry">
            <mxRectangle width="30" height="30" as="alternateBounds" />
          </mxGeometry>
        </mxCell>
        <mxCell id="jd8cTnZOVGz8yn4IlZgi-100" value="DADJ2" style="shape=partialRectangle;overflow=hidden;connectable=0;fillColor=#b1ddf0;align=left;strokeColor=#10739e;top=0;left=0;bottom=0;right=0;spacingLeft=6;" vertex="1" parent="jd8cTnZOVGz8yn4IlZgi-98">
          <mxGeometry x="30" width="310" height="30" as="geometry">
            <mxRectangle width="310" height="30" as="alternateBounds" />
          </mxGeometry>
        </mxCell>
        <mxCell id="jd8cTnZOVGz8yn4IlZgi-101" value="" style="shape=tableRow;horizontal=0;startSize=0;swimlaneHead=0;swimlaneBody=0;fillColor=none;collapsible=0;dropTarget=0;points=[[0,0.5],[1,0.5]];portConstraint=eastwest;strokeColor=inherit;top=0;left=0;right=0;bottom=0;" vertex="1" parent="jd8cTnZOVGz8yn4IlZgi-1">
          <mxGeometry y="1020" width="340" height="30" as="geometry" />
        </mxCell>
        <mxCell id="jd8cTnZOVGz8yn4IlZgi-102" value="" style="shape=partialRectangle;overflow=hidden;connectable=0;fillColor=none;strokeColor=inherit;top=0;left=0;bottom=0;right=0;" vertex="1" parent="jd8cTnZOVGz8yn4IlZgi-101">
          <mxGeometry width="30" height="30" as="geometry">
            <mxRectangle width="30" height="30" as="alternateBounds" />
          </mxGeometry>
        </mxCell>
        <mxCell id="jd8cTnZOVGz8yn4IlZgi-103" value="TPLNR" style="shape=partialRectangle;overflow=hidden;connectable=0;fillColor=#fa6800;align=left;strokeColor=#C73500;top=0;left=0;bottom=0;right=0;spacingLeft=6;fontColor=#000000;" vertex="1" parent="jd8cTnZOVGz8yn4IlZgi-101">
          <mxGeometry x="30" width="310" height="30" as="geometry">
            <mxRectangle width="310" height="30" as="alternateBounds" />
          </mxGeometry>
        </mxCell>
        <mxCell id="jd8cTnZOVGz8yn4IlZgi-104" value="" style="shape=tableRow;horizontal=0;startSize=0;swimlaneHead=0;swimlaneBody=0;fillColor=none;collapsible=0;dropTarget=0;points=[[0,0.5],[1,0.5]];portConstraint=eastwest;strokeColor=inherit;top=0;left=0;right=0;bottom=0;" vertex="1" parent="jd8cTnZOVGz8yn4IlZgi-1">
          <mxGeometry y="1050" width="340" height="30" as="geometry" />
        </mxCell>
        <mxCell id="jd8cTnZOVGz8yn4IlZgi-105" value="" style="shape=partialRectangle;overflow=hidden;connectable=0;fillColor=none;strokeColor=inherit;top=0;left=0;bottom=0;right=0;" vertex="1" parent="jd8cTnZOVGz8yn4IlZgi-104">
          <mxGeometry width="30" height="30" as="geometry">
            <mxRectangle width="30" height="30" as="alternateBounds" />
          </mxGeometry>
        </mxCell>
        <mxCell id="jd8cTnZOVGz8yn4IlZgi-106" value="PLTXT" style="shape=partialRectangle;overflow=hidden;connectable=0;fillColor=#f5f5f5;align=left;strokeColor=#666666;top=0;left=0;bottom=0;right=0;spacingLeft=6;gradientColor=#b3b3b3;" vertex="1" parent="jd8cTnZOVGz8yn4IlZgi-104">
          <mxGeometry x="30" width="310" height="30" as="geometry">
            <mxRectangle width="310" height="30" as="alternateBounds" />
          </mxGeometry>
        </mxCell>
        <mxCell id="jd8cTnZOVGz8yn4IlZgi-107" value="" style="shape=tableRow;horizontal=0;startSize=0;swimlaneHead=0;swimlaneBody=0;fillColor=none;collapsible=0;dropTarget=0;points=[[0,0.5],[1,0.5]];portConstraint=eastwest;strokeColor=inherit;top=0;left=0;right=0;bottom=0;" vertex="1" parent="jd8cTnZOVGz8yn4IlZgi-1">
          <mxGeometry y="1080" width="340" height="30" as="geometry" />
        </mxCell>
        <mxCell id="jd8cTnZOVGz8yn4IlZgi-108" value="" style="shape=partialRectangle;overflow=hidden;connectable=0;fillColor=none;strokeColor=inherit;top=0;left=0;bottom=0;right=0;" vertex="1" parent="jd8cTnZOVGz8yn4IlZgi-107">
          <mxGeometry width="30" height="30" as="geometry">
            <mxRectangle width="30" height="30" as="alternateBounds" />
          </mxGeometry>
        </mxCell>
        <mxCell id="jd8cTnZOVGz8yn4IlZgi-109" value="EQUNR" style="shape=partialRectangle;overflow=hidden;connectable=0;fillColor=#fad9d5;align=left;strokeColor=#ae4132;top=0;left=0;bottom=0;right=0;spacingLeft=6;" vertex="1" parent="jd8cTnZOVGz8yn4IlZgi-107">
          <mxGeometry x="30" width="310" height="30" as="geometry">
            <mxRectangle width="310" height="30" as="alternateBounds" />
          </mxGeometry>
        </mxCell>
        <mxCell id="jd8cTnZOVGz8yn4IlZgi-110" value="" style="shape=tableRow;horizontal=0;startSize=0;swimlaneHead=0;swimlaneBody=0;fillColor=none;collapsible=0;dropTarget=0;points=[[0,0.5],[1,0.5]];portConstraint=eastwest;strokeColor=inherit;top=0;left=0;right=0;bottom=0;" vertex="1" parent="jd8cTnZOVGz8yn4IlZgi-1">
          <mxGeometry y="1110" width="340" height="30" as="geometry" />
        </mxCell>
        <mxCell id="jd8cTnZOVGz8yn4IlZgi-111" value="" style="shape=partialRectangle;overflow=hidden;connectable=0;fillColor=none;strokeColor=inherit;top=0;left=0;bottom=0;right=0;" vertex="1" parent="jd8cTnZOVGz8yn4IlZgi-110">
          <mxGeometry width="30" height="30" as="geometry">
            <mxRectangle width="30" height="30" as="alternateBounds" />
          </mxGeometry>
        </mxCell>
        <mxCell id="jd8cTnZOVGz8yn4IlZgi-112" value="EQKTX" style="shape=partialRectangle;overflow=hidden;connectable=0;fillColor=#fff2cc;align=left;strokeColor=#d6b656;top=0;left=0;bottom=0;right=0;spacingLeft=6;gradientColor=#ffd966;" vertex="1" parent="jd8cTnZOVGz8yn4IlZgi-110">
          <mxGeometry x="30" width="310" height="30" as="geometry">
            <mxRectangle width="310" height="30" as="alternateBounds" />
          </mxGeometry>
        </mxCell>
        <mxCell id="jd8cTnZOVGz8yn4IlZgi-113" value="" style="shape=tableRow;horizontal=0;startSize=0;swimlaneHead=0;swimlaneBody=0;fillColor=none;collapsible=0;dropTarget=0;points=[[0,0.5],[1,0.5]];portConstraint=eastwest;strokeColor=inherit;top=0;left=0;right=0;bottom=0;" vertex="1" parent="jd8cTnZOVGz8yn4IlZgi-1">
          <mxGeometry y="1140" width="340" height="30" as="geometry" />
        </mxCell>
        <mxCell id="jd8cTnZOVGz8yn4IlZgi-114" value="" style="shape=partialRectangle;overflow=hidden;connectable=0;fillColor=none;strokeColor=inherit;top=0;left=0;bottom=0;right=0;" vertex="1" parent="jd8cTnZOVGz8yn4IlZgi-113">
          <mxGeometry width="30" height="30" as="geometry">
            <mxRectangle width="30" height="30" as="alternateBounds" />
          </mxGeometry>
        </mxCell>
        <mxCell id="jd8cTnZOVGz8yn4IlZgi-115" value="BAUTL" style="shape=partialRectangle;overflow=hidden;connectable=0;fillColor=#f8cecc;align=left;strokeColor=#b85450;top=0;left=0;bottom=0;right=0;spacingLeft=6;" vertex="1" parent="jd8cTnZOVGz8yn4IlZgi-113">
          <mxGeometry x="30" width="310" height="30" as="geometry">
            <mxRectangle width="310" height="30" as="alternateBounds" />
          </mxGeometry>
        </mxCell>
        <mxCell id="jd8cTnZOVGz8yn4IlZgi-116" value="" style="shape=tableRow;horizontal=0;startSize=0;swimlaneHead=0;swimlaneBody=0;fillColor=none;collapsible=0;dropTarget=0;points=[[0,0.5],[1,0.5]];portConstraint=eastwest;strokeColor=inherit;top=0;left=0;right=0;bottom=0;" vertex="1" parent="jd8cTnZOVGz8yn4IlZgi-1">
          <mxGeometry y="1170" width="340" height="30" as="geometry" />
        </mxCell>
        <mxCell id="jd8cTnZOVGz8yn4IlZgi-117" value="" style="shape=partialRectangle;overflow=hidden;connectable=0;fillColor=none;strokeColor=inherit;top=0;left=0;bottom=0;right=0;" vertex="1" parent="jd8cTnZOVGz8yn4IlZgi-116">
          <mxGeometry width="30" height="30" as="geometry">
            <mxRectangle width="30" height="30" as="alternateBounds" />
          </mxGeometry>
        </mxCell>
        <mxCell id="jd8cTnZOVGz8yn4IlZgi-118" value="MAND" style="shape=partialRectangle;overflow=hidden;connectable=0;fillColor=#dae8fc;align=left;strokeColor=#6c8ebf;top=0;left=0;bottom=0;right=0;spacingLeft=6;" vertex="1" parent="jd8cTnZOVGz8yn4IlZgi-116">
          <mxGeometry x="30" width="310" height="30" as="geometry">
            <mxRectangle width="310" height="30" as="alternateBounds" />
          </mxGeometry>
        </mxCell>
        <mxCell id="jd8cTnZOVGz8yn4IlZgi-119" value="[fin].[CAUFV-VistaCabeceraOrdenPPSyRK]" style="shape=table;startSize=30;container=1;collapsible=1;childLayout=tableLayout;fixedRows=1;rowLines=0;fontStyle=1;align=center;resizeLast=1;fillColor=#dae8fc;strokeColor=#6c8ebf;rounded=1;" vertex="1" parent="1">
          <mxGeometry x="140" y="-300" width="260" height="510" as="geometry" />
        </mxCell>
        <mxCell id="jd8cTnZOVGz8yn4IlZgi-120" value="" style="shape=tableRow;horizontal=0;startSize=0;swimlaneHead=0;swimlaneBody=0;fillColor=none;collapsible=0;dropTarget=0;points=[[0,0.5],[1,0.5]];portConstraint=eastwest;strokeColor=inherit;top=0;left=0;right=0;bottom=0;" vertex="1" parent="jd8cTnZOVGz8yn4IlZgi-119">
          <mxGeometry y="30" width="260" height="30" as="geometry" />
        </mxCell>
        <mxCell id="jd8cTnZOVGz8yn4IlZgi-121" value="" style="shape=partialRectangle;overflow=hidden;connectable=0;fillColor=none;strokeColor=inherit;top=0;left=0;bottom=0;right=0;" vertex="1" parent="jd8cTnZOVGz8yn4IlZgi-120">
          <mxGeometry width="30" height="30" as="geometry">
            <mxRectangle width="30" height="30" as="alternateBounds" />
          </mxGeometry>
        </mxCell>
        <mxCell id="jd8cTnZOVGz8yn4IlZgi-122" value="OBJNR" style="shape=partialRectangle;overflow=hidden;connectable=0;fillColor=none;align=left;strokeColor=inherit;top=0;left=0;bottom=0;right=0;spacingLeft=6;" vertex="1" parent="jd8cTnZOVGz8yn4IlZgi-120">
          <mxGeometry x="30" width="230" height="30" as="geometry">
            <mxRectangle width="230" height="30" as="alternateBounds" />
          </mxGeometry>
        </mxCell>
        <mxCell id="jd8cTnZOVGz8yn4IlZgi-123" value="" style="shape=tableRow;horizontal=0;startSize=0;swimlaneHead=0;swimlaneBody=0;fillColor=none;collapsible=0;dropTarget=0;points=[[0,0.5],[1,0.5]];portConstraint=eastwest;strokeColor=inherit;top=0;left=0;right=0;bottom=0;" vertex="1" parent="jd8cTnZOVGz8yn4IlZgi-119">
          <mxGeometry y="60" width="260" height="30" as="geometry" />
        </mxCell>
        <mxCell id="jd8cTnZOVGz8yn4IlZgi-124" value="" style="shape=partialRectangle;overflow=hidden;connectable=0;fillColor=none;strokeColor=inherit;top=0;left=0;bottom=0;right=0;" vertex="1" parent="jd8cTnZOVGz8yn4IlZgi-123">
          <mxGeometry width="30" height="30" as="geometry">
            <mxRectangle width="30" height="30" as="alternateBounds" />
          </mxGeometry>
        </mxCell>
        <mxCell id="jd8cTnZOVGz8yn4IlZgi-125" value="MAND" style="shape=partialRectangle;overflow=hidden;connectable=0;fillColor=none;align=left;strokeColor=inherit;top=0;left=0;bottom=0;right=0;spacingLeft=6;" vertex="1" parent="jd8cTnZOVGz8yn4IlZgi-123">
          <mxGeometry x="30" width="230" height="30" as="geometry">
            <mxRectangle width="230" height="30" as="alternateBounds" />
          </mxGeometry>
        </mxCell>
        <mxCell id="jd8cTnZOVGz8yn4IlZgi-126" value="" style="shape=tableRow;horizontal=0;startSize=0;swimlaneHead=0;swimlaneBody=0;fillColor=none;collapsible=0;dropTarget=0;points=[[0,0.5],[1,0.5]];portConstraint=eastwest;strokeColor=inherit;top=0;left=0;right=0;bottom=0;" vertex="1" parent="jd8cTnZOVGz8yn4IlZgi-119">
          <mxGeometry y="90" width="260" height="30" as="geometry" />
        </mxCell>
        <mxCell id="jd8cTnZOVGz8yn4IlZgi-127" value="" style="shape=partialRectangle;overflow=hidden;connectable=0;fillColor=none;strokeColor=inherit;top=0;left=0;bottom=0;right=0;" vertex="1" parent="jd8cTnZOVGz8yn4IlZgi-126">
          <mxGeometry width="30" height="30" as="geometry">
            <mxRectangle width="30" height="30" as="alternateBounds" />
          </mxGeometry>
        </mxCell>
        <mxCell id="jd8cTnZOVGz8yn4IlZgi-128" value="AUFNR" style="shape=partialRectangle;overflow=hidden;connectable=0;fillColor=none;align=left;strokeColor=inherit;top=0;left=0;bottom=0;right=0;spacingLeft=6;" vertex="1" parent="jd8cTnZOVGz8yn4IlZgi-126">
          <mxGeometry x="30" width="230" height="30" as="geometry">
            <mxRectangle width="230" height="30" as="alternateBounds" />
          </mxGeometry>
        </mxCell>
        <mxCell id="jd8cTnZOVGz8yn4IlZgi-129" value="" style="shape=tableRow;horizontal=0;startSize=0;swimlaneHead=0;swimlaneBody=0;fillColor=none;collapsible=0;dropTarget=0;points=[[0,0.5],[1,0.5]];portConstraint=eastwest;strokeColor=inherit;top=0;left=0;right=0;bottom=0;" vertex="1" parent="jd8cTnZOVGz8yn4IlZgi-119">
          <mxGeometry y="120" width="260" height="30" as="geometry" />
        </mxCell>
        <mxCell id="jd8cTnZOVGz8yn4IlZgi-130" value="" style="shape=partialRectangle;overflow=hidden;connectable=0;fillColor=none;strokeColor=inherit;top=0;left=0;bottom=0;right=0;" vertex="1" parent="jd8cTnZOVGz8yn4IlZgi-129">
          <mxGeometry width="30" height="30" as="geometry">
            <mxRectangle width="30" height="30" as="alternateBounds" />
          </mxGeometry>
        </mxCell>
        <mxCell id="jd8cTnZOVGz8yn4IlZgi-131" value="AUART" style="shape=partialRectangle;overflow=hidden;connectable=0;fillColor=none;align=left;strokeColor=inherit;top=0;left=0;bottom=0;right=0;spacingLeft=6;" vertex="1" parent="jd8cTnZOVGz8yn4IlZgi-129">
          <mxGeometry x="30" width="230" height="30" as="geometry">
            <mxRectangle width="230" height="30" as="alternateBounds" />
          </mxGeometry>
        </mxCell>
        <mxCell id="jd8cTnZOVGz8yn4IlZgi-132" value="" style="shape=tableRow;horizontal=0;startSize=0;swimlaneHead=0;swimlaneBody=0;fillColor=none;collapsible=0;dropTarget=0;points=[[0,0.5],[1,0.5]];portConstraint=eastwest;strokeColor=inherit;top=0;left=0;right=0;bottom=0;" vertex="1" parent="jd8cTnZOVGz8yn4IlZgi-119">
          <mxGeometry y="150" width="260" height="30" as="geometry" />
        </mxCell>
        <mxCell id="jd8cTnZOVGz8yn4IlZgi-133" value="" style="shape=partialRectangle;overflow=hidden;connectable=0;fillColor=none;strokeColor=inherit;top=0;left=0;bottom=0;right=0;" vertex="1" parent="jd8cTnZOVGz8yn4IlZgi-132">
          <mxGeometry width="30" height="30" as="geometry">
            <mxRectangle width="30" height="30" as="alternateBounds" />
          </mxGeometry>
        </mxCell>
        <mxCell id="jd8cTnZOVGz8yn4IlZgi-134" value="KTEXT" style="shape=partialRectangle;overflow=hidden;connectable=0;fillColor=none;align=left;strokeColor=inherit;top=0;left=0;bottom=0;right=0;spacingLeft=6;" vertex="1" parent="jd8cTnZOVGz8yn4IlZgi-132">
          <mxGeometry x="30" width="230" height="30" as="geometry">
            <mxRectangle width="230" height="30" as="alternateBounds" />
          </mxGeometry>
        </mxCell>
        <mxCell id="jd8cTnZOVGz8yn4IlZgi-135" value="" style="shape=tableRow;horizontal=0;startSize=0;swimlaneHead=0;swimlaneBody=0;fillColor=none;collapsible=0;dropTarget=0;points=[[0,0.5],[1,0.5]];portConstraint=eastwest;strokeColor=inherit;top=0;left=0;right=0;bottom=0;" vertex="1" parent="jd8cTnZOVGz8yn4IlZgi-119">
          <mxGeometry y="180" width="260" height="30" as="geometry" />
        </mxCell>
        <mxCell id="jd8cTnZOVGz8yn4IlZgi-136" value="" style="shape=partialRectangle;overflow=hidden;connectable=0;fillColor=none;strokeColor=inherit;top=0;left=0;bottom=0;right=0;" vertex="1" parent="jd8cTnZOVGz8yn4IlZgi-135">
          <mxGeometry width="30" height="30" as="geometry">
            <mxRectangle width="30" height="30" as="alternateBounds" />
          </mxGeometry>
        </mxCell>
        <mxCell id="jd8cTnZOVGz8yn4IlZgi-137" value="GSTRP" style="shape=partialRectangle;overflow=hidden;connectable=0;fillColor=none;align=left;strokeColor=inherit;top=0;left=0;bottom=0;right=0;spacingLeft=6;" vertex="1" parent="jd8cTnZOVGz8yn4IlZgi-135">
          <mxGeometry x="30" width="230" height="30" as="geometry">
            <mxRectangle width="230" height="30" as="alternateBounds" />
          </mxGeometry>
        </mxCell>
        <mxCell id="jd8cTnZOVGz8yn4IlZgi-138" value="" style="shape=tableRow;horizontal=0;startSize=0;swimlaneHead=0;swimlaneBody=0;fillColor=none;collapsible=0;dropTarget=0;points=[[0,0.5],[1,0.5]];portConstraint=eastwest;strokeColor=inherit;top=0;left=0;right=0;bottom=0;" vertex="1" parent="jd8cTnZOVGz8yn4IlZgi-119">
          <mxGeometry y="210" width="260" height="30" as="geometry" />
        </mxCell>
        <mxCell id="jd8cTnZOVGz8yn4IlZgi-139" value="" style="shape=partialRectangle;overflow=hidden;connectable=0;fillColor=none;strokeColor=inherit;top=0;left=0;bottom=0;right=0;" vertex="1" parent="jd8cTnZOVGz8yn4IlZgi-138">
          <mxGeometry width="30" height="30" as="geometry">
            <mxRectangle width="30" height="30" as="alternateBounds" />
          </mxGeometry>
        </mxCell>
        <mxCell id="jd8cTnZOVGz8yn4IlZgi-140" value="GSTRS" style="shape=partialRectangle;overflow=hidden;connectable=0;fillColor=none;align=left;strokeColor=inherit;top=0;left=0;bottom=0;right=0;spacingLeft=6;" vertex="1" parent="jd8cTnZOVGz8yn4IlZgi-138">
          <mxGeometry x="30" width="230" height="30" as="geometry">
            <mxRectangle width="230" height="30" as="alternateBounds" />
          </mxGeometry>
        </mxCell>
        <mxCell id="jd8cTnZOVGz8yn4IlZgi-141" value="" style="shape=tableRow;horizontal=0;startSize=0;swimlaneHead=0;swimlaneBody=0;fillColor=none;collapsible=0;dropTarget=0;points=[[0,0.5],[1,0.5]];portConstraint=eastwest;strokeColor=inherit;top=0;left=0;right=0;bottom=0;" vertex="1" parent="jd8cTnZOVGz8yn4IlZgi-119">
          <mxGeometry y="240" width="260" height="30" as="geometry" />
        </mxCell>
        <mxCell id="jd8cTnZOVGz8yn4IlZgi-142" value="" style="shape=partialRectangle;overflow=hidden;connectable=0;fillColor=none;strokeColor=inherit;top=0;left=0;bottom=0;right=0;" vertex="1" parent="jd8cTnZOVGz8yn4IlZgi-141">
          <mxGeometry width="30" height="30" as="geometry">
            <mxRectangle width="30" height="30" as="alternateBounds" />
          </mxGeometry>
        </mxCell>
        <mxCell id="jd8cTnZOVGz8yn4IlZgi-143" value="GSUZS" style="shape=partialRectangle;overflow=hidden;connectable=0;fillColor=none;align=left;strokeColor=inherit;top=0;left=0;bottom=0;right=0;spacingLeft=6;" vertex="1" parent="jd8cTnZOVGz8yn4IlZgi-141">
          <mxGeometry x="30" width="230" height="30" as="geometry">
            <mxRectangle width="230" height="30" as="alternateBounds" />
          </mxGeometry>
        </mxCell>
        <mxCell id="jd8cTnZOVGz8yn4IlZgi-144" value="" style="shape=tableRow;horizontal=0;startSize=0;swimlaneHead=0;swimlaneBody=0;fillColor=none;collapsible=0;dropTarget=0;points=[[0,0.5],[1,0.5]];portConstraint=eastwest;strokeColor=inherit;top=0;left=0;right=0;bottom=0;" vertex="1" parent="jd8cTnZOVGz8yn4IlZgi-119">
          <mxGeometry y="270" width="260" height="30" as="geometry" />
        </mxCell>
        <mxCell id="jd8cTnZOVGz8yn4IlZgi-145" value="" style="shape=partialRectangle;overflow=hidden;connectable=0;fillColor=none;strokeColor=inherit;top=0;left=0;bottom=0;right=0;" vertex="1" parent="jd8cTnZOVGz8yn4IlZgi-144">
          <mxGeometry width="30" height="30" as="geometry">
            <mxRectangle width="30" height="30" as="alternateBounds" />
          </mxGeometry>
        </mxCell>
        <mxCell id="jd8cTnZOVGz8yn4IlZgi-146" value="GLTRS" style="shape=partialRectangle;overflow=hidden;connectable=0;fillColor=none;align=left;strokeColor=inherit;top=0;left=0;bottom=0;right=0;spacingLeft=6;" vertex="1" parent="jd8cTnZOVGz8yn4IlZgi-144">
          <mxGeometry x="30" width="230" height="30" as="geometry">
            <mxRectangle width="230" height="30" as="alternateBounds" />
          </mxGeometry>
        </mxCell>
        <mxCell id="jd8cTnZOVGz8yn4IlZgi-147" value="" style="shape=tableRow;horizontal=0;startSize=0;swimlaneHead=0;swimlaneBody=0;fillColor=none;collapsible=0;dropTarget=0;points=[[0,0.5],[1,0.5]];portConstraint=eastwest;strokeColor=inherit;top=0;left=0;right=0;bottom=0;" vertex="1" parent="jd8cTnZOVGz8yn4IlZgi-119">
          <mxGeometry y="300" width="260" height="30" as="geometry" />
        </mxCell>
        <mxCell id="jd8cTnZOVGz8yn4IlZgi-148" value="" style="shape=partialRectangle;overflow=hidden;connectable=0;fillColor=none;strokeColor=inherit;top=0;left=0;bottom=0;right=0;" vertex="1" parent="jd8cTnZOVGz8yn4IlZgi-147">
          <mxGeometry width="30" height="30" as="geometry">
            <mxRectangle width="30" height="30" as="alternateBounds" />
          </mxGeometry>
        </mxCell>
        <mxCell id="jd8cTnZOVGz8yn4IlZgi-149" value="GLUZS" style="shape=partialRectangle;overflow=hidden;connectable=0;fillColor=none;align=left;strokeColor=inherit;top=0;left=0;bottom=0;right=0;spacingLeft=6;" vertex="1" parent="jd8cTnZOVGz8yn4IlZgi-147">
          <mxGeometry x="30" width="230" height="30" as="geometry">
            <mxRectangle width="230" height="30" as="alternateBounds" />
          </mxGeometry>
        </mxCell>
        <mxCell id="jd8cTnZOVGz8yn4IlZgi-150" value="" style="shape=tableRow;horizontal=0;startSize=0;swimlaneHead=0;swimlaneBody=0;fillColor=none;collapsible=0;dropTarget=0;points=[[0,0.5],[1,0.5]];portConstraint=eastwest;strokeColor=inherit;top=0;left=0;right=0;bottom=0;" vertex="1" parent="jd8cTnZOVGz8yn4IlZgi-119">
          <mxGeometry y="330" width="260" height="30" as="geometry" />
        </mxCell>
        <mxCell id="jd8cTnZOVGz8yn4IlZgi-151" value="" style="shape=partialRectangle;overflow=hidden;connectable=0;fillColor=none;strokeColor=inherit;top=0;left=0;bottom=0;right=0;" vertex="1" parent="jd8cTnZOVGz8yn4IlZgi-150">
          <mxGeometry width="30" height="30" as="geometry">
            <mxRectangle width="30" height="30" as="alternateBounds" />
          </mxGeometry>
        </mxCell>
        <mxCell id="jd8cTnZOVGz8yn4IlZgi-152" value="TERKZ" style="shape=partialRectangle;overflow=hidden;connectable=0;fillColor=none;align=left;strokeColor=inherit;top=0;left=0;bottom=0;right=0;spacingLeft=6;" vertex="1" parent="jd8cTnZOVGz8yn4IlZgi-150">
          <mxGeometry x="30" width="230" height="30" as="geometry">
            <mxRectangle width="230" height="30" as="alternateBounds" />
          </mxGeometry>
        </mxCell>
        <mxCell id="jd8cTnZOVGz8yn4IlZgi-153" value="" style="shape=tableRow;horizontal=0;startSize=0;swimlaneHead=0;swimlaneBody=0;fillColor=none;collapsible=0;dropTarget=0;points=[[0,0.5],[1,0.5]];portConstraint=eastwest;strokeColor=inherit;top=0;left=0;right=0;bottom=0;" vertex="1" parent="jd8cTnZOVGz8yn4IlZgi-119">
          <mxGeometry y="360" width="260" height="30" as="geometry" />
        </mxCell>
        <mxCell id="jd8cTnZOVGz8yn4IlZgi-154" value="" style="shape=partialRectangle;overflow=hidden;connectable=0;fillColor=none;strokeColor=inherit;top=0;left=0;bottom=0;right=0;" vertex="1" parent="jd8cTnZOVGz8yn4IlZgi-153">
          <mxGeometry width="30" height="30" as="geometry">
            <mxRectangle width="30" height="30" as="alternateBounds" />
          </mxGeometry>
        </mxCell>
        <mxCell id="jd8cTnZOVGz8yn4IlZgi-155" value="KAPVERSA" style="shape=partialRectangle;overflow=hidden;connectable=0;fillColor=none;align=left;strokeColor=inherit;top=0;left=0;bottom=0;right=0;spacingLeft=6;" vertex="1" parent="jd8cTnZOVGz8yn4IlZgi-153">
          <mxGeometry x="30" width="230" height="30" as="geometry">
            <mxRectangle width="230" height="30" as="alternateBounds" />
          </mxGeometry>
        </mxCell>
        <mxCell id="jd8cTnZOVGz8yn4IlZgi-156" value="" style="shape=tableRow;horizontal=0;startSize=0;swimlaneHead=0;swimlaneBody=0;fillColor=none;collapsible=0;dropTarget=0;points=[[0,0.5],[1,0.5]];portConstraint=eastwest;strokeColor=inherit;top=0;left=0;right=0;bottom=0;" vertex="1" parent="jd8cTnZOVGz8yn4IlZgi-119">
          <mxGeometry y="390" width="260" height="30" as="geometry" />
        </mxCell>
        <mxCell id="jd8cTnZOVGz8yn4IlZgi-157" value="" style="shape=partialRectangle;overflow=hidden;connectable=0;fillColor=none;strokeColor=inherit;top=0;left=0;bottom=0;right=0;" vertex="1" parent="jd8cTnZOVGz8yn4IlZgi-156">
          <mxGeometry width="30" height="30" as="geometry">
            <mxRectangle width="30" height="30" as="alternateBounds" />
          </mxGeometry>
        </mxCell>
        <mxCell id="jd8cTnZOVGz8yn4IlZgi-158" value="GSTRI" style="shape=partialRectangle;overflow=hidden;connectable=0;fillColor=none;align=left;strokeColor=inherit;top=0;left=0;bottom=0;right=0;spacingLeft=6;" vertex="1" parent="jd8cTnZOVGz8yn4IlZgi-156">
          <mxGeometry x="30" width="230" height="30" as="geometry">
            <mxRectangle width="230" height="30" as="alternateBounds" />
          </mxGeometry>
        </mxCell>
        <mxCell id="jd8cTnZOVGz8yn4IlZgi-159" value="" style="shape=tableRow;horizontal=0;startSize=0;swimlaneHead=0;swimlaneBody=0;fillColor=none;collapsible=0;dropTarget=0;points=[[0,0.5],[1,0.5]];portConstraint=eastwest;strokeColor=inherit;top=0;left=0;right=0;bottom=0;" vertex="1" parent="jd8cTnZOVGz8yn4IlZgi-119">
          <mxGeometry y="420" width="260" height="30" as="geometry" />
        </mxCell>
        <mxCell id="jd8cTnZOVGz8yn4IlZgi-160" value="" style="shape=partialRectangle;overflow=hidden;connectable=0;fillColor=none;strokeColor=inherit;top=0;left=0;bottom=0;right=0;" vertex="1" parent="jd8cTnZOVGz8yn4IlZgi-159">
          <mxGeometry width="30" height="30" as="geometry">
            <mxRectangle width="30" height="30" as="alternateBounds" />
          </mxGeometry>
        </mxCell>
        <mxCell id="jd8cTnZOVGz8yn4IlZgi-161" value="GSUZI" style="shape=partialRectangle;overflow=hidden;connectable=0;fillColor=none;align=left;strokeColor=inherit;top=0;left=0;bottom=0;right=0;spacingLeft=6;" vertex="1" parent="jd8cTnZOVGz8yn4IlZgi-159">
          <mxGeometry x="30" width="230" height="30" as="geometry">
            <mxRectangle width="230" height="30" as="alternateBounds" />
          </mxGeometry>
        </mxCell>
        <mxCell id="jd8cTnZOVGz8yn4IlZgi-162" value="" style="shape=tableRow;horizontal=0;startSize=0;swimlaneHead=0;swimlaneBody=0;fillColor=none;collapsible=0;dropTarget=0;points=[[0,0.5],[1,0.5]];portConstraint=eastwest;strokeColor=inherit;top=0;left=0;right=0;bottom=0;" vertex="1" parent="jd8cTnZOVGz8yn4IlZgi-119">
          <mxGeometry y="450" width="260" height="30" as="geometry" />
        </mxCell>
        <mxCell id="jd8cTnZOVGz8yn4IlZgi-163" value="" style="shape=partialRectangle;overflow=hidden;connectable=0;fillColor=none;strokeColor=inherit;top=0;left=0;bottom=0;right=0;" vertex="1" parent="jd8cTnZOVGz8yn4IlZgi-162">
          <mxGeometry width="30" height="30" as="geometry">
            <mxRectangle width="30" height="30" as="alternateBounds" />
          </mxGeometry>
        </mxCell>
        <mxCell id="jd8cTnZOVGz8yn4IlZgi-164" value="GETRI" style="shape=partialRectangle;overflow=hidden;connectable=0;fillColor=none;align=left;strokeColor=inherit;top=0;left=0;bottom=0;right=0;spacingLeft=6;" vertex="1" parent="jd8cTnZOVGz8yn4IlZgi-162">
          <mxGeometry x="30" width="230" height="30" as="geometry">
            <mxRectangle width="230" height="30" as="alternateBounds" />
          </mxGeometry>
        </mxCell>
        <mxCell id="jd8cTnZOVGz8yn4IlZgi-165" value="" style="shape=tableRow;horizontal=0;startSize=0;swimlaneHead=0;swimlaneBody=0;fillColor=none;collapsible=0;dropTarget=0;points=[[0,0.5],[1,0.5]];portConstraint=eastwest;strokeColor=inherit;top=0;left=0;right=0;bottom=0;" vertex="1" parent="jd8cTnZOVGz8yn4IlZgi-119">
          <mxGeometry y="480" width="260" height="30" as="geometry" />
        </mxCell>
        <mxCell id="jd8cTnZOVGz8yn4IlZgi-166" value="" style="shape=partialRectangle;overflow=hidden;connectable=0;fillColor=none;strokeColor=inherit;top=0;left=0;bottom=0;right=0;" vertex="1" parent="jd8cTnZOVGz8yn4IlZgi-165">
          <mxGeometry width="30" height="30" as="geometry">
            <mxRectangle width="30" height="30" as="alternateBounds" />
          </mxGeometry>
        </mxCell>
        <mxCell id="jd8cTnZOVGz8yn4IlZgi-167" value="GEUZI" style="shape=partialRectangle;overflow=hidden;connectable=0;fillColor=none;align=left;strokeColor=inherit;top=0;left=0;bottom=0;right=0;spacingLeft=6;" vertex="1" parent="jd8cTnZOVGz8yn4IlZgi-165">
          <mxGeometry x="30" width="230" height="30" as="geometry">
            <mxRectangle width="230" height="30" as="alternateBounds" />
          </mxGeometry>
        </mxCell>
        <mxCell id="jd8cTnZOVGz8yn4IlZgi-168" value="[dbo].[tmpJEST-StatusIndividualObjeto]" style="shape=table;startSize=30;container=1;collapsible=1;childLayout=tableLayout;fixedRows=1;rowLines=0;fontStyle=1;align=center;resizeLast=1;fillColor=#d5e8d4;strokeColor=#82b366;rounded=1;" vertex="1" parent="1">
          <mxGeometry x="-170" y="-300" width="260" height="120" as="geometry" />
        </mxCell>
        <mxCell id="jd8cTnZOVGz8yn4IlZgi-169" value="" style="shape=tableRow;horizontal=0;startSize=0;swimlaneHead=0;swimlaneBody=0;fillColor=none;collapsible=0;dropTarget=0;points=[[0,0.5],[1,0.5]];portConstraint=eastwest;strokeColor=inherit;top=0;left=0;right=0;bottom=0;" vertex="1" parent="jd8cTnZOVGz8yn4IlZgi-168">
          <mxGeometry y="30" width="260" height="30" as="geometry" />
        </mxCell>
        <mxCell id="jd8cTnZOVGz8yn4IlZgi-170" value="" style="shape=partialRectangle;overflow=hidden;connectable=0;fillColor=none;strokeColor=inherit;top=0;left=0;bottom=0;right=0;" vertex="1" parent="jd8cTnZOVGz8yn4IlZgi-169">
          <mxGeometry width="30" height="30" as="geometry">
            <mxRectangle width="30" height="30" as="alternateBounds" />
          </mxGeometry>
        </mxCell>
        <mxCell id="jd8cTnZOVGz8yn4IlZgi-171" value="OBJNR" style="shape=partialRectangle;overflow=hidden;connectable=0;fillColor=none;align=left;strokeColor=inherit;top=0;left=0;bottom=0;right=0;spacingLeft=6;" vertex="1" parent="jd8cTnZOVGz8yn4IlZgi-169">
          <mxGeometry x="30" width="230" height="30" as="geometry">
            <mxRectangle width="230" height="30" as="alternateBounds" />
          </mxGeometry>
        </mxCell>
        <mxCell id="jd8cTnZOVGz8yn4IlZgi-172" value="" style="shape=tableRow;horizontal=0;startSize=0;swimlaneHead=0;swimlaneBody=0;fillColor=none;collapsible=0;dropTarget=0;points=[[0,0.5],[1,0.5]];portConstraint=eastwest;strokeColor=inherit;top=0;left=0;right=0;bottom=0;" vertex="1" parent="jd8cTnZOVGz8yn4IlZgi-168">
          <mxGeometry y="60" width="260" height="30" as="geometry" />
        </mxCell>
        <mxCell id="jd8cTnZOVGz8yn4IlZgi-173" value="" style="shape=partialRectangle;overflow=hidden;connectable=0;fillColor=none;strokeColor=inherit;top=0;left=0;bottom=0;right=0;" vertex="1" parent="jd8cTnZOVGz8yn4IlZgi-172">
          <mxGeometry width="30" height="30" as="geometry">
            <mxRectangle width="30" height="30" as="alternateBounds" />
          </mxGeometry>
        </mxCell>
        <mxCell id="jd8cTnZOVGz8yn4IlZgi-174" value="MAND" style="shape=partialRectangle;overflow=hidden;connectable=0;fillColor=none;align=left;strokeColor=inherit;top=0;left=0;bottom=0;right=0;spacingLeft=6;" vertex="1" parent="jd8cTnZOVGz8yn4IlZgi-172">
          <mxGeometry x="30" width="230" height="30" as="geometry">
            <mxRectangle width="230" height="30" as="alternateBounds" />
          </mxGeometry>
        </mxCell>
        <mxCell id="jd8cTnZOVGz8yn4IlZgi-175" value="" style="shape=tableRow;horizontal=0;startSize=0;swimlaneHead=0;swimlaneBody=0;fillColor=none;collapsible=0;dropTarget=0;points=[[0,0.5],[1,0.5]];portConstraint=eastwest;strokeColor=inherit;top=0;left=0;right=0;bottom=0;" vertex="1" parent="jd8cTnZOVGz8yn4IlZgi-168">
          <mxGeometry y="90" width="260" height="30" as="geometry" />
        </mxCell>
        <mxCell id="jd8cTnZOVGz8yn4IlZgi-176" value="" style="shape=partialRectangle;overflow=hidden;connectable=0;fillColor=none;strokeColor=inherit;top=0;left=0;bottom=0;right=0;" vertex="1" parent="jd8cTnZOVGz8yn4IlZgi-175">
          <mxGeometry width="30" height="30" as="geometry">
            <mxRectangle width="30" height="30" as="alternateBounds" />
          </mxGeometry>
        </mxCell>
        <mxCell id="jd8cTnZOVGz8yn4IlZgi-177" value="STAT" style="shape=partialRectangle;overflow=hidden;connectable=0;fillColor=none;align=left;strokeColor=inherit;top=0;left=0;bottom=0;right=0;spacingLeft=6;" vertex="1" parent="jd8cTnZOVGz8yn4IlZgi-175">
          <mxGeometry x="30" width="230" height="30" as="geometry">
            <mxRectangle width="230" height="30" as="alternateBounds" />
          </mxGeometry>
        </mxCell>
        <mxCell id="jd8cTnZOVGz8yn4IlZgi-178" value="[fin].[TJ30T-TextoStatusUsuarios]" style="shape=table;startSize=30;container=1;collapsible=1;childLayout=tableLayout;fixedRows=1;rowLines=0;fontStyle=1;align=center;resizeLast=1;rounded=1;fillColor=#ffe6cc;strokeColor=#d79b00;" vertex="1" parent="1">
          <mxGeometry x="160" y="240" width="240" height="120" as="geometry" />
        </mxCell>
        <mxCell id="jd8cTnZOVGz8yn4IlZgi-179" value="" style="shape=tableRow;horizontal=0;startSize=0;swimlaneHead=0;swimlaneBody=0;fillColor=none;collapsible=0;dropTarget=0;points=[[0,0.5],[1,0.5]];portConstraint=eastwest;strokeColor=inherit;top=0;left=0;right=0;bottom=0;" vertex="1" parent="jd8cTnZOVGz8yn4IlZgi-178">
          <mxGeometry y="30" width="240" height="30" as="geometry" />
        </mxCell>
        <mxCell id="jd8cTnZOVGz8yn4IlZgi-180" value="" style="shape=partialRectangle;overflow=hidden;connectable=0;fillColor=none;strokeColor=inherit;top=0;left=0;bottom=0;right=0;" vertex="1" parent="jd8cTnZOVGz8yn4IlZgi-179">
          <mxGeometry width="30" height="30" as="geometry">
            <mxRectangle width="30" height="30" as="alternateBounds" />
          </mxGeometry>
        </mxCell>
        <mxCell id="jd8cTnZOVGz8yn4IlZgi-181" value="ESTAT" style="shape=partialRectangle;overflow=hidden;connectable=0;fillColor=none;align=left;strokeColor=inherit;top=0;left=0;bottom=0;right=0;spacingLeft=6;" vertex="1" parent="jd8cTnZOVGz8yn4IlZgi-179">
          <mxGeometry x="30" width="210" height="30" as="geometry">
            <mxRectangle width="210" height="30" as="alternateBounds" />
          </mxGeometry>
        </mxCell>
        <mxCell id="jd8cTnZOVGz8yn4IlZgi-182" value="" style="shape=tableRow;horizontal=0;startSize=0;swimlaneHead=0;swimlaneBody=0;fillColor=none;collapsible=0;dropTarget=0;points=[[0,0.5],[1,0.5]];portConstraint=eastwest;strokeColor=inherit;top=0;left=0;right=0;bottom=0;" vertex="1" parent="jd8cTnZOVGz8yn4IlZgi-178">
          <mxGeometry y="60" width="240" height="30" as="geometry" />
        </mxCell>
        <mxCell id="jd8cTnZOVGz8yn4IlZgi-183" value="" style="shape=partialRectangle;overflow=hidden;connectable=0;fillColor=none;strokeColor=inherit;top=0;left=0;bottom=0;right=0;" vertex="1" parent="jd8cTnZOVGz8yn4IlZgi-182">
          <mxGeometry width="30" height="30" as="geometry">
            <mxRectangle width="30" height="30" as="alternateBounds" />
          </mxGeometry>
        </mxCell>
        <mxCell id="jd8cTnZOVGz8yn4IlZgi-184" value="MAND" style="shape=partialRectangle;overflow=hidden;connectable=0;fillColor=none;align=left;strokeColor=inherit;top=0;left=0;bottom=0;right=0;spacingLeft=6;" vertex="1" parent="jd8cTnZOVGz8yn4IlZgi-182">
          <mxGeometry x="30" width="210" height="30" as="geometry">
            <mxRectangle width="210" height="30" as="alternateBounds" />
          </mxGeometry>
        </mxCell>
        <mxCell id="jd8cTnZOVGz8yn4IlZgi-185" value="" style="shape=tableRow;horizontal=0;startSize=0;swimlaneHead=0;swimlaneBody=0;fillColor=none;collapsible=0;dropTarget=0;points=[[0,0.5],[1,0.5]];portConstraint=eastwest;strokeColor=inherit;top=0;left=0;right=0;bottom=0;" vertex="1" parent="jd8cTnZOVGz8yn4IlZgi-178">
          <mxGeometry y="90" width="240" height="30" as="geometry" />
        </mxCell>
        <mxCell id="jd8cTnZOVGz8yn4IlZgi-186" value="" style="shape=partialRectangle;overflow=hidden;connectable=0;fillColor=none;strokeColor=inherit;top=0;left=0;bottom=0;right=0;" vertex="1" parent="jd8cTnZOVGz8yn4IlZgi-185">
          <mxGeometry width="30" height="30" as="geometry">
            <mxRectangle width="30" height="30" as="alternateBounds" />
          </mxGeometry>
        </mxCell>
        <mxCell id="jd8cTnZOVGz8yn4IlZgi-187" value="STSMA" style="shape=partialRectangle;overflow=hidden;connectable=0;fillColor=none;align=left;strokeColor=inherit;top=0;left=0;bottom=0;right=0;spacingLeft=6;" vertex="1" parent="jd8cTnZOVGz8yn4IlZgi-185">
          <mxGeometry x="30" width="210" height="30" as="geometry">
            <mxRectangle width="210" height="30" as="alternateBounds" />
          </mxGeometry>
        </mxCell>
        <mxCell id="jd8cTnZOVGz8yn4IlZgi-189" value="[fin].[AFIH-CabeceraOrdenMantenimiento]" style="shape=table;startSize=30;container=1;collapsible=1;childLayout=tableLayout;fixedRows=1;rowLines=0;fontStyle=1;align=center;resizeLast=1;rounded=1;fillColor=#f8cecc;strokeColor=#b85450;" vertex="1" parent="1">
          <mxGeometry x="120" y="400" width="280" height="360" as="geometry" />
        </mxCell>
        <mxCell id="jd8cTnZOVGz8yn4IlZgi-190" value="" style="shape=tableRow;horizontal=0;startSize=0;swimlaneHead=0;swimlaneBody=0;fillColor=none;collapsible=0;dropTarget=0;points=[[0,0.5],[1,0.5]];portConstraint=eastwest;strokeColor=inherit;top=0;left=0;right=0;bottom=0;" vertex="1" parent="jd8cTnZOVGz8yn4IlZgi-189">
          <mxGeometry y="30" width="280" height="30" as="geometry" />
        </mxCell>
        <mxCell id="jd8cTnZOVGz8yn4IlZgi-191" value="" style="shape=partialRectangle;overflow=hidden;connectable=0;fillColor=none;strokeColor=inherit;top=0;left=0;bottom=0;right=0;" vertex="1" parent="jd8cTnZOVGz8yn4IlZgi-190">
          <mxGeometry width="30" height="30" as="geometry">
            <mxRectangle width="30" height="30" as="alternateBounds" />
          </mxGeometry>
        </mxCell>
        <mxCell id="jd8cTnZOVGz8yn4IlZgi-192" value="AUFNR" style="shape=partialRectangle;overflow=hidden;connectable=0;fillColor=none;align=left;strokeColor=inherit;top=0;left=0;bottom=0;right=0;spacingLeft=6;" vertex="1" parent="jd8cTnZOVGz8yn4IlZgi-190">
          <mxGeometry x="30" width="250" height="30" as="geometry">
            <mxRectangle width="250" height="30" as="alternateBounds" />
          </mxGeometry>
        </mxCell>
        <mxCell id="jd8cTnZOVGz8yn4IlZgi-193" value="" style="shape=tableRow;horizontal=0;startSize=0;swimlaneHead=0;swimlaneBody=0;fillColor=none;collapsible=0;dropTarget=0;points=[[0,0.5],[1,0.5]];portConstraint=eastwest;strokeColor=inherit;top=0;left=0;right=0;bottom=0;" vertex="1" parent="jd8cTnZOVGz8yn4IlZgi-189">
          <mxGeometry y="60" width="280" height="30" as="geometry" />
        </mxCell>
        <mxCell id="jd8cTnZOVGz8yn4IlZgi-194" value="" style="shape=partialRectangle;overflow=hidden;connectable=0;fillColor=none;strokeColor=inherit;top=0;left=0;bottom=0;right=0;" vertex="1" parent="jd8cTnZOVGz8yn4IlZgi-193">
          <mxGeometry width="30" height="30" as="geometry">
            <mxRectangle width="30" height="30" as="alternateBounds" />
          </mxGeometry>
        </mxCell>
        <mxCell id="jd8cTnZOVGz8yn4IlZgi-195" value="MAND" style="shape=partialRectangle;overflow=hidden;connectable=0;fillColor=none;align=left;strokeColor=inherit;top=0;left=0;bottom=0;right=0;spacingLeft=6;" vertex="1" parent="jd8cTnZOVGz8yn4IlZgi-193">
          <mxGeometry x="30" width="250" height="30" as="geometry">
            <mxRectangle width="250" height="30" as="alternateBounds" />
          </mxGeometry>
        </mxCell>
        <mxCell id="jd8cTnZOVGz8yn4IlZgi-196" value="" style="shape=tableRow;horizontal=0;startSize=0;swimlaneHead=0;swimlaneBody=0;fillColor=none;collapsible=0;dropTarget=0;points=[[0,0.5],[1,0.5]];portConstraint=eastwest;strokeColor=inherit;top=0;left=0;right=0;bottom=0;" vertex="1" parent="jd8cTnZOVGz8yn4IlZgi-189">
          <mxGeometry y="90" width="280" height="30" as="geometry" />
        </mxCell>
        <mxCell id="jd8cTnZOVGz8yn4IlZgi-197" value="" style="shape=partialRectangle;overflow=hidden;connectable=0;fillColor=none;strokeColor=inherit;top=0;left=0;bottom=0;right=0;" vertex="1" parent="jd8cTnZOVGz8yn4IlZgi-196">
          <mxGeometry width="30" height="30" as="geometry">
            <mxRectangle width="30" height="30" as="alternateBounds" />
          </mxGeometry>
        </mxCell>
        <mxCell id="jd8cTnZOVGz8yn4IlZgi-198" value="GEWRK" style="shape=partialRectangle;overflow=hidden;connectable=0;fillColor=none;align=left;strokeColor=inherit;top=0;left=0;bottom=0;right=0;spacingLeft=6;" vertex="1" parent="jd8cTnZOVGz8yn4IlZgi-196">
          <mxGeometry x="30" width="250" height="30" as="geometry">
            <mxRectangle width="250" height="30" as="alternateBounds" />
          </mxGeometry>
        </mxCell>
        <mxCell id="jd8cTnZOVGz8yn4IlZgi-199" value="" style="shape=tableRow;horizontal=0;startSize=0;swimlaneHead=0;swimlaneBody=0;fillColor=none;collapsible=0;dropTarget=0;points=[[0,0.5],[1,0.5]];portConstraint=eastwest;strokeColor=inherit;top=0;left=0;right=0;bottom=0;" vertex="1" parent="jd8cTnZOVGz8yn4IlZgi-189">
          <mxGeometry y="120" width="280" height="30" as="geometry" />
        </mxCell>
        <mxCell id="jd8cTnZOVGz8yn4IlZgi-200" value="" style="shape=partialRectangle;overflow=hidden;connectable=0;fillColor=none;strokeColor=inherit;top=0;left=0;bottom=0;right=0;" vertex="1" parent="jd8cTnZOVGz8yn4IlZgi-199">
          <mxGeometry width="30" height="30" as="geometry">
            <mxRectangle width="30" height="30" as="alternateBounds" />
          </mxGeometry>
        </mxCell>
        <mxCell id="jd8cTnZOVGz8yn4IlZgi-201" value="ILOAN" style="shape=partialRectangle;overflow=hidden;connectable=0;fillColor=none;align=left;strokeColor=inherit;top=0;left=0;bottom=0;right=0;spacingLeft=6;" vertex="1" parent="jd8cTnZOVGz8yn4IlZgi-199">
          <mxGeometry x="30" width="250" height="30" as="geometry">
            <mxRectangle width="250" height="30" as="alternateBounds" />
          </mxGeometry>
        </mxCell>
        <mxCell id="jd8cTnZOVGz8yn4IlZgi-202" value="" style="shape=tableRow;horizontal=0;startSize=0;swimlaneHead=0;swimlaneBody=0;fillColor=none;collapsible=0;dropTarget=0;points=[[0,0.5],[1,0.5]];portConstraint=eastwest;strokeColor=inherit;top=0;left=0;right=0;bottom=0;" vertex="1" parent="jd8cTnZOVGz8yn4IlZgi-189">
          <mxGeometry y="150" width="280" height="30" as="geometry" />
        </mxCell>
        <mxCell id="jd8cTnZOVGz8yn4IlZgi-203" value="" style="shape=partialRectangle;overflow=hidden;connectable=0;fillColor=none;strokeColor=inherit;top=0;left=0;bottom=0;right=0;" vertex="1" parent="jd8cTnZOVGz8yn4IlZgi-202">
          <mxGeometry width="30" height="30" as="geometry">
            <mxRectangle width="30" height="30" as="alternateBounds" />
          </mxGeometry>
        </mxCell>
        <mxCell id="jd8cTnZOVGz8yn4IlZgi-204" value="INGPR" style="shape=partialRectangle;overflow=hidden;connectable=0;fillColor=none;align=left;strokeColor=inherit;top=0;left=0;bottom=0;right=0;spacingLeft=6;" vertex="1" parent="jd8cTnZOVGz8yn4IlZgi-202">
          <mxGeometry x="30" width="250" height="30" as="geometry">
            <mxRectangle width="250" height="30" as="alternateBounds" />
          </mxGeometry>
        </mxCell>
        <mxCell id="jd8cTnZOVGz8yn4IlZgi-205" value="" style="shape=tableRow;horizontal=0;startSize=0;swimlaneHead=0;swimlaneBody=0;fillColor=none;collapsible=0;dropTarget=0;points=[[0,0.5],[1,0.5]];portConstraint=eastwest;strokeColor=inherit;top=0;left=0;right=0;bottom=0;" vertex="1" parent="jd8cTnZOVGz8yn4IlZgi-189">
          <mxGeometry y="180" width="280" height="30" as="geometry" />
        </mxCell>
        <mxCell id="jd8cTnZOVGz8yn4IlZgi-206" value="" style="shape=partialRectangle;overflow=hidden;connectable=0;fillColor=none;strokeColor=inherit;top=0;left=0;bottom=0;right=0;" vertex="1" parent="jd8cTnZOVGz8yn4IlZgi-205">
          <mxGeometry width="30" height="30" as="geometry">
            <mxRectangle width="30" height="30" as="alternateBounds" />
          </mxGeometry>
        </mxCell>
        <mxCell id="jd8cTnZOVGz8yn4IlZgi-207" value="IWERK" style="shape=partialRectangle;overflow=hidden;connectable=0;fillColor=none;align=left;strokeColor=inherit;top=0;left=0;bottom=0;right=0;spacingLeft=6;" vertex="1" parent="jd8cTnZOVGz8yn4IlZgi-205">
          <mxGeometry x="30" width="250" height="30" as="geometry">
            <mxRectangle width="250" height="30" as="alternateBounds" />
          </mxGeometry>
        </mxCell>
        <mxCell id="jd8cTnZOVGz8yn4IlZgi-208" value="" style="shape=tableRow;horizontal=0;startSize=0;swimlaneHead=0;swimlaneBody=0;fillColor=none;collapsible=0;dropTarget=0;points=[[0,0.5],[1,0.5]];portConstraint=eastwest;strokeColor=inherit;top=0;left=0;right=0;bottom=0;rounded=1;" vertex="1" parent="jd8cTnZOVGz8yn4IlZgi-189">
          <mxGeometry y="210" width="280" height="30" as="geometry" />
        </mxCell>
        <mxCell id="jd8cTnZOVGz8yn4IlZgi-209" value="" style="shape=partialRectangle;overflow=hidden;connectable=0;fillColor=none;strokeColor=inherit;top=0;left=0;bottom=0;right=0;" vertex="1" parent="jd8cTnZOVGz8yn4IlZgi-208">
          <mxGeometry width="30" height="30" as="geometry">
            <mxRectangle width="30" height="30" as="alternateBounds" />
          </mxGeometry>
        </mxCell>
        <mxCell id="jd8cTnZOVGz8yn4IlZgi-210" value="ILART" style="shape=partialRectangle;overflow=hidden;connectable=0;fillColor=none;align=left;strokeColor=inherit;top=0;left=0;bottom=0;right=0;spacingLeft=6;" vertex="1" parent="jd8cTnZOVGz8yn4IlZgi-208">
          <mxGeometry x="30" width="250" height="30" as="geometry">
            <mxRectangle width="250" height="30" as="alternateBounds" />
          </mxGeometry>
        </mxCell>
        <mxCell id="jd8cTnZOVGz8yn4IlZgi-211" value="" style="shape=tableRow;horizontal=0;startSize=0;swimlaneHead=0;swimlaneBody=0;fillColor=none;collapsible=0;dropTarget=0;points=[[0,0.5],[1,0.5]];portConstraint=eastwest;strokeColor=inherit;top=0;left=0;right=0;bottom=0;" vertex="1" parent="jd8cTnZOVGz8yn4IlZgi-189">
          <mxGeometry y="240" width="280" height="30" as="geometry" />
        </mxCell>
        <mxCell id="jd8cTnZOVGz8yn4IlZgi-212" value="" style="shape=partialRectangle;overflow=hidden;connectable=0;fillColor=none;strokeColor=inherit;top=0;left=0;bottom=0;right=0;" vertex="1" parent="jd8cTnZOVGz8yn4IlZgi-211">
          <mxGeometry width="30" height="30" as="geometry">
            <mxRectangle width="30" height="30" as="alternateBounds" />
          </mxGeometry>
        </mxCell>
        <mxCell id="jd8cTnZOVGz8yn4IlZgi-213" value="EQUNR" style="shape=partialRectangle;overflow=hidden;connectable=0;fillColor=none;align=left;strokeColor=inherit;top=0;left=0;bottom=0;right=0;spacingLeft=6;" vertex="1" parent="jd8cTnZOVGz8yn4IlZgi-211">
          <mxGeometry x="30" width="250" height="30" as="geometry">
            <mxRectangle width="250" height="30" as="alternateBounds" />
          </mxGeometry>
        </mxCell>
        <mxCell id="jd8cTnZOVGz8yn4IlZgi-214" value="" style="shape=tableRow;horizontal=0;startSize=0;swimlaneHead=0;swimlaneBody=0;fillColor=none;collapsible=0;dropTarget=0;points=[[0,0.5],[1,0.5]];portConstraint=eastwest;strokeColor=inherit;top=0;left=0;right=0;bottom=0;" vertex="1" parent="jd8cTnZOVGz8yn4IlZgi-189">
          <mxGeometry y="270" width="280" height="30" as="geometry" />
        </mxCell>
        <mxCell id="jd8cTnZOVGz8yn4IlZgi-215" value="" style="shape=partialRectangle;overflow=hidden;connectable=0;fillColor=none;strokeColor=inherit;top=0;left=0;bottom=0;right=0;" vertex="1" parent="jd8cTnZOVGz8yn4IlZgi-214">
          <mxGeometry width="30" height="30" as="geometry">
            <mxRectangle width="30" height="30" as="alternateBounds" />
          </mxGeometry>
        </mxCell>
        <mxCell id="jd8cTnZOVGz8yn4IlZgi-216" value="PRIOK" style="shape=partialRectangle;overflow=hidden;connectable=0;fillColor=none;align=left;strokeColor=inherit;top=0;left=0;bottom=0;right=0;spacingLeft=6;" vertex="1" parent="jd8cTnZOVGz8yn4IlZgi-214">
          <mxGeometry x="30" width="250" height="30" as="geometry">
            <mxRectangle width="250" height="30" as="alternateBounds" />
          </mxGeometry>
        </mxCell>
        <mxCell id="jd8cTnZOVGz8yn4IlZgi-217" value="" style="shape=tableRow;horizontal=0;startSize=0;swimlaneHead=0;swimlaneBody=0;fillColor=none;collapsible=0;dropTarget=0;points=[[0,0.5],[1,0.5]];portConstraint=eastwest;strokeColor=inherit;top=0;left=0;right=0;bottom=0;" vertex="1" parent="jd8cTnZOVGz8yn4IlZgi-189">
          <mxGeometry y="300" width="280" height="30" as="geometry" />
        </mxCell>
        <mxCell id="jd8cTnZOVGz8yn4IlZgi-218" value="" style="shape=partialRectangle;overflow=hidden;connectable=0;fillColor=none;strokeColor=inherit;top=0;left=0;bottom=0;right=0;" vertex="1" parent="jd8cTnZOVGz8yn4IlZgi-217">
          <mxGeometry width="30" height="30" as="geometry">
            <mxRectangle width="30" height="30" as="alternateBounds" />
          </mxGeometry>
        </mxCell>
        <mxCell id="jd8cTnZOVGz8yn4IlZgi-219" value="REVNR" style="shape=partialRectangle;overflow=hidden;connectable=0;fillColor=none;align=left;strokeColor=inherit;top=0;left=0;bottom=0;right=0;spacingLeft=6;" vertex="1" parent="jd8cTnZOVGz8yn4IlZgi-217">
          <mxGeometry x="30" width="250" height="30" as="geometry">
            <mxRectangle width="250" height="30" as="alternateBounds" />
          </mxGeometry>
        </mxCell>
        <mxCell id="jd8cTnZOVGz8yn4IlZgi-220" value="" style="shape=tableRow;horizontal=0;startSize=0;swimlaneHead=0;swimlaneBody=0;fillColor=none;collapsible=0;dropTarget=0;points=[[0,0.5],[1,0.5]];portConstraint=eastwest;strokeColor=inherit;top=0;left=0;right=0;bottom=0;" vertex="1" parent="jd8cTnZOVGz8yn4IlZgi-189">
          <mxGeometry y="330" width="280" height="30" as="geometry" />
        </mxCell>
        <mxCell id="jd8cTnZOVGz8yn4IlZgi-221" value="" style="shape=partialRectangle;overflow=hidden;connectable=0;fillColor=none;strokeColor=inherit;top=0;left=0;bottom=0;right=0;" vertex="1" parent="jd8cTnZOVGz8yn4IlZgi-220">
          <mxGeometry width="30" height="30" as="geometry">
            <mxRectangle width="30" height="30" as="alternateBounds" />
          </mxGeometry>
        </mxCell>
        <mxCell id="jd8cTnZOVGz8yn4IlZgi-222" value="BAUTL" style="shape=partialRectangle;overflow=hidden;connectable=0;fillColor=none;align=left;strokeColor=inherit;top=0;left=0;bottom=0;right=0;spacingLeft=6;" vertex="1" parent="jd8cTnZOVGz8yn4IlZgi-220">
          <mxGeometry x="30" width="250" height="30" as="geometry">
            <mxRectangle width="250" height="30" as="alternateBounds" />
          </mxGeometry>
        </mxCell>
        <mxCell id="jd8cTnZOVGz8yn4IlZgi-223" value="[fin].[CRHD-CabeceraPuestodeTrabajo]" style="shape=table;startSize=30;container=1;collapsible=1;childLayout=tableLayout;fixedRows=1;rowLines=0;fontStyle=1;align=center;resizeLast=1;rounded=1;" vertex="1" parent="1">
          <mxGeometry x="-240" y="260" width="280" height="120" as="geometry" />
        </mxCell>
        <mxCell id="jd8cTnZOVGz8yn4IlZgi-224" value="" style="shape=tableRow;horizontal=0;startSize=0;swimlaneHead=0;swimlaneBody=0;fillColor=none;collapsible=0;dropTarget=0;points=[[0,0.5],[1,0.5]];portConstraint=eastwest;strokeColor=inherit;top=0;left=0;right=0;bottom=0;" vertex="1" parent="jd8cTnZOVGz8yn4IlZgi-223">
          <mxGeometry y="30" width="280" height="30" as="geometry" />
        </mxCell>
        <mxCell id="jd8cTnZOVGz8yn4IlZgi-225" value="" style="shape=partialRectangle;overflow=hidden;connectable=0;fillColor=none;strokeColor=inherit;top=0;left=0;bottom=0;right=0;" vertex="1" parent="jd8cTnZOVGz8yn4IlZgi-224">
          <mxGeometry width="30" height="30" as="geometry">
            <mxRectangle width="30" height="30" as="alternateBounds" />
          </mxGeometry>
        </mxCell>
        <mxCell id="jd8cTnZOVGz8yn4IlZgi-226" value="ARBPL" style="shape=partialRectangle;overflow=hidden;connectable=0;fillColor=none;align=left;strokeColor=inherit;top=0;left=0;bottom=0;right=0;spacingLeft=6;" vertex="1" parent="jd8cTnZOVGz8yn4IlZgi-224">
          <mxGeometry x="30" width="250" height="30" as="geometry">
            <mxRectangle width="250" height="30" as="alternateBounds" />
          </mxGeometry>
        </mxCell>
        <mxCell id="jd8cTnZOVGz8yn4IlZgi-227" value="" style="shape=tableRow;horizontal=0;startSize=0;swimlaneHead=0;swimlaneBody=0;fillColor=none;collapsible=0;dropTarget=0;points=[[0,0.5],[1,0.5]];portConstraint=eastwest;strokeColor=inherit;top=0;left=0;right=0;bottom=0;" vertex="1" parent="jd8cTnZOVGz8yn4IlZgi-223">
          <mxGeometry y="60" width="280" height="30" as="geometry" />
        </mxCell>
        <mxCell id="jd8cTnZOVGz8yn4IlZgi-228" value="" style="shape=partialRectangle;overflow=hidden;connectable=0;fillColor=none;strokeColor=inherit;top=0;left=0;bottom=0;right=0;" vertex="1" parent="jd8cTnZOVGz8yn4IlZgi-227">
          <mxGeometry width="30" height="30" as="geometry">
            <mxRectangle width="30" height="30" as="alternateBounds" />
          </mxGeometry>
        </mxCell>
        <mxCell id="jd8cTnZOVGz8yn4IlZgi-229" value="MAND" style="shape=partialRectangle;overflow=hidden;connectable=0;fillColor=none;align=left;strokeColor=inherit;top=0;left=0;bottom=0;right=0;spacingLeft=6;" vertex="1" parent="jd8cTnZOVGz8yn4IlZgi-227">
          <mxGeometry x="30" width="250" height="30" as="geometry">
            <mxRectangle width="250" height="30" as="alternateBounds" />
          </mxGeometry>
        </mxCell>
        <mxCell id="jd8cTnZOVGz8yn4IlZgi-230" value="" style="shape=tableRow;horizontal=0;startSize=0;swimlaneHead=0;swimlaneBody=0;fillColor=none;collapsible=0;dropTarget=0;points=[[0,0.5],[1,0.5]];portConstraint=eastwest;strokeColor=inherit;top=0;left=0;right=0;bottom=0;" vertex="1" parent="jd8cTnZOVGz8yn4IlZgi-223">
          <mxGeometry y="90" width="280" height="30" as="geometry" />
        </mxCell>
        <mxCell id="jd8cTnZOVGz8yn4IlZgi-231" value="" style="shape=partialRectangle;overflow=hidden;connectable=0;fillColor=none;strokeColor=inherit;top=0;left=0;bottom=0;right=0;" vertex="1" parent="jd8cTnZOVGz8yn4IlZgi-230">
          <mxGeometry width="30" height="30" as="geometry">
            <mxRectangle width="30" height="30" as="alternateBounds" />
          </mxGeometry>
        </mxCell>
        <mxCell id="jd8cTnZOVGz8yn4IlZgi-232" value="OBJID" style="shape=partialRectangle;overflow=hidden;connectable=0;fillColor=none;align=left;strokeColor=inherit;top=0;left=0;bottom=0;right=0;spacingLeft=6;" vertex="1" parent="jd8cTnZOVGz8yn4IlZgi-230">
          <mxGeometry x="30" width="250" height="30" as="geometry">
            <mxRectangle width="250" height="30" as="alternateBounds" />
          </mxGeometry>
        </mxCell>
        <mxCell id="jd8cTnZOVGz8yn4IlZgi-233" value="[fin].[AUFK-DatosMaestrosDeOrden]" style="shape=table;startSize=30;container=1;collapsible=1;childLayout=tableLayout;fixedRows=1;rowLines=0;fontStyle=1;align=center;resizeLast=1;rounded=1;fillColor=#e1d5e7;strokeColor=#9673a6;" vertex="1" parent="1">
          <mxGeometry x="120" y="1020" width="280" height="240" as="geometry" />
        </mxCell>
        <mxCell id="jd8cTnZOVGz8yn4IlZgi-234" value="" style="shape=tableRow;horizontal=0;startSize=0;swimlaneHead=0;swimlaneBody=0;fillColor=none;collapsible=0;dropTarget=0;points=[[0,0.5],[1,0.5]];portConstraint=eastwest;strokeColor=inherit;top=0;left=0;right=0;bottom=0;" vertex="1" parent="jd8cTnZOVGz8yn4IlZgi-233">
          <mxGeometry y="30" width="280" height="30" as="geometry" />
        </mxCell>
        <mxCell id="jd8cTnZOVGz8yn4IlZgi-235" value="" style="shape=partialRectangle;overflow=hidden;connectable=0;fillColor=none;strokeColor=inherit;top=0;left=0;bottom=0;right=0;" vertex="1" parent="jd8cTnZOVGz8yn4IlZgi-234">
          <mxGeometry width="30" height="30" as="geometry">
            <mxRectangle width="30" height="30" as="alternateBounds" />
          </mxGeometry>
        </mxCell>
        <mxCell id="jd8cTnZOVGz8yn4IlZgi-236" value="AUFNR" style="shape=partialRectangle;overflow=hidden;connectable=0;fillColor=none;align=left;strokeColor=inherit;top=0;left=0;bottom=0;right=0;spacingLeft=6;" vertex="1" parent="jd8cTnZOVGz8yn4IlZgi-234">
          <mxGeometry x="30" width="250" height="30" as="geometry">
            <mxRectangle width="250" height="30" as="alternateBounds" />
          </mxGeometry>
        </mxCell>
        <mxCell id="jd8cTnZOVGz8yn4IlZgi-237" value="" style="shape=tableRow;horizontal=0;startSize=0;swimlaneHead=0;swimlaneBody=0;fillColor=none;collapsible=0;dropTarget=0;points=[[0,0.5],[1,0.5]];portConstraint=eastwest;strokeColor=inherit;top=0;left=0;right=0;bottom=0;" vertex="1" parent="jd8cTnZOVGz8yn4IlZgi-233">
          <mxGeometry y="60" width="280" height="30" as="geometry" />
        </mxCell>
        <mxCell id="jd8cTnZOVGz8yn4IlZgi-238" value="" style="shape=partialRectangle;overflow=hidden;connectable=0;fillColor=none;strokeColor=inherit;top=0;left=0;bottom=0;right=0;" vertex="1" parent="jd8cTnZOVGz8yn4IlZgi-237">
          <mxGeometry width="30" height="30" as="geometry">
            <mxRectangle width="30" height="30" as="alternateBounds" />
          </mxGeometry>
        </mxCell>
        <mxCell id="jd8cTnZOVGz8yn4IlZgi-239" value="MAND" style="shape=partialRectangle;overflow=hidden;connectable=0;fillColor=none;align=left;strokeColor=inherit;top=0;left=0;bottom=0;right=0;spacingLeft=6;" vertex="1" parent="jd8cTnZOVGz8yn4IlZgi-237">
          <mxGeometry x="30" width="250" height="30" as="geometry">
            <mxRectangle width="250" height="30" as="alternateBounds" />
          </mxGeometry>
        </mxCell>
        <mxCell id="jd8cTnZOVGz8yn4IlZgi-240" value="" style="shape=tableRow;horizontal=0;startSize=0;swimlaneHead=0;swimlaneBody=0;fillColor=none;collapsible=0;dropTarget=0;points=[[0,0.5],[1,0.5]];portConstraint=eastwest;strokeColor=inherit;top=0;left=0;right=0;bottom=0;" vertex="1" parent="jd8cTnZOVGz8yn4IlZgi-233">
          <mxGeometry y="90" width="280" height="30" as="geometry" />
        </mxCell>
        <mxCell id="jd8cTnZOVGz8yn4IlZgi-241" value="" style="shape=partialRectangle;overflow=hidden;connectable=0;fillColor=none;strokeColor=inherit;top=0;left=0;bottom=0;right=0;" vertex="1" parent="jd8cTnZOVGz8yn4IlZgi-240">
          <mxGeometry width="30" height="30" as="geometry">
            <mxRectangle width="30" height="30" as="alternateBounds" />
          </mxGeometry>
        </mxCell>
        <mxCell id="jd8cTnZOVGz8yn4IlZgi-242" value="WERKS" style="shape=partialRectangle;overflow=hidden;connectable=0;fillColor=none;align=left;strokeColor=inherit;top=0;left=0;bottom=0;right=0;spacingLeft=6;" vertex="1" parent="jd8cTnZOVGz8yn4IlZgi-240">
          <mxGeometry x="30" width="250" height="30" as="geometry">
            <mxRectangle width="250" height="30" as="alternateBounds" />
          </mxGeometry>
        </mxCell>
        <mxCell id="jd8cTnZOVGz8yn4IlZgi-243" value="" style="shape=tableRow;horizontal=0;startSize=0;swimlaneHead=0;swimlaneBody=0;fillColor=none;collapsible=0;dropTarget=0;points=[[0,0.5],[1,0.5]];portConstraint=eastwest;strokeColor=inherit;top=0;left=0;right=0;bottom=0;" vertex="1" parent="jd8cTnZOVGz8yn4IlZgi-233">
          <mxGeometry y="120" width="280" height="30" as="geometry" />
        </mxCell>
        <mxCell id="jd8cTnZOVGz8yn4IlZgi-244" value="" style="shape=partialRectangle;overflow=hidden;connectable=0;fillColor=none;strokeColor=inherit;top=0;left=0;bottom=0;right=0;" vertex="1" parent="jd8cTnZOVGz8yn4IlZgi-243">
          <mxGeometry width="30" height="30" as="geometry">
            <mxRectangle width="30" height="30" as="alternateBounds" />
          </mxGeometry>
        </mxCell>
        <mxCell id="jd8cTnZOVGz8yn4IlZgi-245" value="AUART" style="shape=partialRectangle;overflow=hidden;connectable=0;fillColor=none;align=left;strokeColor=inherit;top=0;left=0;bottom=0;right=0;spacingLeft=6;" vertex="1" parent="jd8cTnZOVGz8yn4IlZgi-243">
          <mxGeometry x="30" width="250" height="30" as="geometry">
            <mxRectangle width="250" height="30" as="alternateBounds" />
          </mxGeometry>
        </mxCell>
        <mxCell id="jd8cTnZOVGz8yn4IlZgi-246" value="" style="shape=tableRow;horizontal=0;startSize=0;swimlaneHead=0;swimlaneBody=0;fillColor=none;collapsible=0;dropTarget=0;points=[[0,0.5],[1,0.5]];portConstraint=eastwest;strokeColor=inherit;top=0;left=0;right=0;bottom=0;" vertex="1" parent="jd8cTnZOVGz8yn4IlZgi-233">
          <mxGeometry y="150" width="280" height="30" as="geometry" />
        </mxCell>
        <mxCell id="jd8cTnZOVGz8yn4IlZgi-247" value="" style="shape=partialRectangle;overflow=hidden;connectable=0;fillColor=none;strokeColor=inherit;top=0;left=0;bottom=0;right=0;" vertex="1" parent="jd8cTnZOVGz8yn4IlZgi-246">
          <mxGeometry width="30" height="30" as="geometry">
            <mxRectangle width="30" height="30" as="alternateBounds" />
          </mxGeometry>
        </mxCell>
        <mxCell id="jd8cTnZOVGz8yn4IlZgi-248" value="WAWRK" style="shape=partialRectangle;overflow=hidden;connectable=0;fillColor=none;align=left;strokeColor=inherit;top=0;left=0;bottom=0;right=0;spacingLeft=6;" vertex="1" parent="jd8cTnZOVGz8yn4IlZgi-246">
          <mxGeometry x="30" width="250" height="30" as="geometry">
            <mxRectangle width="250" height="30" as="alternateBounds" />
          </mxGeometry>
        </mxCell>
        <mxCell id="jd8cTnZOVGz8yn4IlZgi-249" value="" style="shape=tableRow;horizontal=0;startSize=0;swimlaneHead=0;swimlaneBody=0;fillColor=none;collapsible=0;dropTarget=0;points=[[0,0.5],[1,0.5]];portConstraint=eastwest;strokeColor=inherit;top=0;left=0;right=0;bottom=0;" vertex="1" parent="jd8cTnZOVGz8yn4IlZgi-233">
          <mxGeometry y="180" width="280" height="30" as="geometry" />
        </mxCell>
        <mxCell id="jd8cTnZOVGz8yn4IlZgi-250" value="" style="shape=partialRectangle;overflow=hidden;connectable=0;fillColor=none;strokeColor=inherit;top=0;left=0;bottom=0;right=0;" vertex="1" parent="jd8cTnZOVGz8yn4IlZgi-249">
          <mxGeometry width="30" height="30" as="geometry">
            <mxRectangle width="30" height="30" as="alternateBounds" />
          </mxGeometry>
        </mxCell>
        <mxCell id="jd8cTnZOVGz8yn4IlZgi-251" value="USER4" style="shape=partialRectangle;overflow=hidden;connectable=0;fillColor=none;align=left;strokeColor=inherit;top=0;left=0;bottom=0;right=0;spacingLeft=6;" vertex="1" parent="jd8cTnZOVGz8yn4IlZgi-249">
          <mxGeometry x="30" width="250" height="30" as="geometry">
            <mxRectangle width="250" height="30" as="alternateBounds" />
          </mxGeometry>
        </mxCell>
        <mxCell id="jd8cTnZOVGz8yn4IlZgi-252" value="" style="shape=tableRow;horizontal=0;startSize=0;swimlaneHead=0;swimlaneBody=0;fillColor=none;collapsible=0;dropTarget=0;points=[[0,0.5],[1,0.5]];portConstraint=eastwest;strokeColor=inherit;top=0;left=0;right=0;bottom=0;" vertex="1" parent="jd8cTnZOVGz8yn4IlZgi-233">
          <mxGeometry y="210" width="280" height="30" as="geometry" />
        </mxCell>
        <mxCell id="jd8cTnZOVGz8yn4IlZgi-253" value="" style="shape=partialRectangle;overflow=hidden;connectable=0;fillColor=none;strokeColor=inherit;top=0;left=0;bottom=0;right=0;" vertex="1" parent="jd8cTnZOVGz8yn4IlZgi-252">
          <mxGeometry width="30" height="30" as="geometry">
            <mxRectangle width="30" height="30" as="alternateBounds" />
          </mxGeometry>
        </mxCell>
        <mxCell id="jd8cTnZOVGz8yn4IlZgi-254" value="WAERS" style="shape=partialRectangle;overflow=hidden;connectable=0;fillColor=none;align=left;strokeColor=inherit;top=0;left=0;bottom=0;right=0;spacingLeft=6;" vertex="1" parent="jd8cTnZOVGz8yn4IlZgi-252">
          <mxGeometry x="30" width="250" height="30" as="geometry">
            <mxRectangle width="250" height="30" as="alternateBounds" />
          </mxGeometry>
        </mxCell>
        <mxCell id="jd8cTnZOVGz8yn4IlZgi-255" value="[fin].[TCX00-ProgrNivelPlanGestionFinancieraParametroControl]" style="shape=table;startSize=30;container=1;collapsible=1;childLayout=tableLayout;fixedRows=1;rowLines=0;fontStyle=1;align=center;resizeLast=1;rounded=1;fillColor=#b1ddf0;strokeColor=#10739e;" vertex="1" parent="1">
          <mxGeometry x="20" y="800" width="380" height="180" as="geometry" />
        </mxCell>
        <mxCell id="jd8cTnZOVGz8yn4IlZgi-256" value="" style="shape=tableRow;horizontal=0;startSize=0;swimlaneHead=0;swimlaneBody=0;fillColor=none;collapsible=0;dropTarget=0;points=[[0,0.5],[1,0.5]];portConstraint=eastwest;strokeColor=inherit;top=0;left=0;right=0;bottom=0;" vertex="1" parent="jd8cTnZOVGz8yn4IlZgi-255">
          <mxGeometry y="30" width="380" height="30" as="geometry" />
        </mxCell>
        <mxCell id="jd8cTnZOVGz8yn4IlZgi-257" value="" style="shape=partialRectangle;overflow=hidden;connectable=0;fillColor=none;strokeColor=inherit;top=0;left=0;bottom=0;right=0;" vertex="1" parent="jd8cTnZOVGz8yn4IlZgi-256">
          <mxGeometry width="30" height="30" as="geometry">
            <mxRectangle width="30" height="30" as="alternateBounds" />
          </mxGeometry>
        </mxCell>
        <mxCell id="jd8cTnZOVGz8yn4IlZgi-258" value="WERKS" style="shape=partialRectangle;overflow=hidden;connectable=0;fillColor=none;align=left;strokeColor=inherit;top=0;left=0;bottom=0;right=0;spacingLeft=6;" vertex="1" parent="jd8cTnZOVGz8yn4IlZgi-256">
          <mxGeometry x="30" width="350" height="30" as="geometry">
            <mxRectangle width="350" height="30" as="alternateBounds" />
          </mxGeometry>
        </mxCell>
        <mxCell id="jd8cTnZOVGz8yn4IlZgi-259" value="" style="shape=tableRow;horizontal=0;startSize=0;swimlaneHead=0;swimlaneBody=0;fillColor=none;collapsible=0;dropTarget=0;points=[[0,0.5],[1,0.5]];portConstraint=eastwest;strokeColor=inherit;top=0;left=0;right=0;bottom=0;" vertex="1" parent="jd8cTnZOVGz8yn4IlZgi-255">
          <mxGeometry y="60" width="380" height="30" as="geometry" />
        </mxCell>
        <mxCell id="jd8cTnZOVGz8yn4IlZgi-260" value="" style="shape=partialRectangle;overflow=hidden;connectable=0;fillColor=none;strokeColor=inherit;top=0;left=0;bottom=0;right=0;" vertex="1" parent="jd8cTnZOVGz8yn4IlZgi-259">
          <mxGeometry width="30" height="30" as="geometry">
            <mxRectangle width="30" height="30" as="alternateBounds" />
          </mxGeometry>
        </mxCell>
        <mxCell id="jd8cTnZOVGz8yn4IlZgi-261" value="AUFTA" style="shape=partialRectangle;overflow=hidden;connectable=0;fillColor=none;align=left;strokeColor=inherit;top=0;left=0;bottom=0;right=0;spacingLeft=6;" vertex="1" parent="jd8cTnZOVGz8yn4IlZgi-259">
          <mxGeometry x="30" width="350" height="30" as="geometry">
            <mxRectangle width="350" height="30" as="alternateBounds" />
          </mxGeometry>
        </mxCell>
        <mxCell id="jd8cTnZOVGz8yn4IlZgi-262" value="" style="shape=tableRow;horizontal=0;startSize=0;swimlaneHead=0;swimlaneBody=0;fillColor=none;collapsible=0;dropTarget=0;points=[[0,0.5],[1,0.5]];portConstraint=eastwest;strokeColor=inherit;top=0;left=0;right=0;bottom=0;" vertex="1" parent="jd8cTnZOVGz8yn4IlZgi-255">
          <mxGeometry y="90" width="380" height="30" as="geometry" />
        </mxCell>
        <mxCell id="jd8cTnZOVGz8yn4IlZgi-263" value="" style="shape=partialRectangle;overflow=hidden;connectable=0;fillColor=none;strokeColor=inherit;top=0;left=0;bottom=0;right=0;" vertex="1" parent="jd8cTnZOVGz8yn4IlZgi-262">
          <mxGeometry width="30" height="30" as="geometry">
            <mxRectangle width="30" height="30" as="alternateBounds" />
          </mxGeometry>
        </mxCell>
        <mxCell id="jd8cTnZOVGz8yn4IlZgi-264" value="MAND" style="shape=partialRectangle;overflow=hidden;connectable=0;fillColor=none;align=left;strokeColor=inherit;top=0;left=0;bottom=0;right=0;spacingLeft=6;" vertex="1" parent="jd8cTnZOVGz8yn4IlZgi-262">
          <mxGeometry x="30" width="350" height="30" as="geometry">
            <mxRectangle width="350" height="30" as="alternateBounds" />
          </mxGeometry>
        </mxCell>
        <mxCell id="jd8cTnZOVGz8yn4IlZgi-265" value="" style="shape=tableRow;horizontal=0;startSize=0;swimlaneHead=0;swimlaneBody=0;fillColor=none;collapsible=0;dropTarget=0;points=[[0,0.5],[1,0.5]];portConstraint=eastwest;strokeColor=inherit;top=0;left=0;right=0;bottom=0;rounded=1;" vertex="1" parent="jd8cTnZOVGz8yn4IlZgi-255">
          <mxGeometry y="120" width="380" height="30" as="geometry" />
        </mxCell>
        <mxCell id="jd8cTnZOVGz8yn4IlZgi-266" value="" style="shape=partialRectangle;overflow=hidden;connectable=0;fillColor=none;strokeColor=inherit;top=0;left=0;bottom=0;right=0;" vertex="1" parent="jd8cTnZOVGz8yn4IlZgi-265">
          <mxGeometry width="30" height="30" as="geometry">
            <mxRectangle width="30" height="30" as="alternateBounds" />
          </mxGeometry>
        </mxCell>
        <mxCell id="jd8cTnZOVGz8yn4IlZgi-267" value="STVERG" style="shape=partialRectangle;overflow=hidden;connectable=0;fillColor=none;align=left;strokeColor=inherit;top=0;left=0;bottom=0;right=0;spacingLeft=6;" vertex="1" parent="jd8cTnZOVGz8yn4IlZgi-265">
          <mxGeometry x="30" width="350" height="30" as="geometry">
            <mxRectangle width="350" height="30" as="alternateBounds" />
          </mxGeometry>
        </mxCell>
        <mxCell id="jd8cTnZOVGz8yn4IlZgi-268" value="" style="shape=tableRow;horizontal=0;startSize=0;swimlaneHead=0;swimlaneBody=0;fillColor=none;collapsible=0;dropTarget=0;points=[[0,0.5],[1,0.5]];portConstraint=eastwest;strokeColor=inherit;top=0;left=0;right=0;bottom=0;" vertex="1" parent="jd8cTnZOVGz8yn4IlZgi-255">
          <mxGeometry y="150" width="380" height="30" as="geometry" />
        </mxCell>
        <mxCell id="jd8cTnZOVGz8yn4IlZgi-269" value="" style="shape=partialRectangle;overflow=hidden;connectable=0;fillColor=none;strokeColor=inherit;top=0;left=0;bottom=0;right=0;" vertex="1" parent="jd8cTnZOVGz8yn4IlZgi-268">
          <mxGeometry width="30" height="30" as="geometry">
            <mxRectangle width="30" height="30" as="alternateBounds" />
          </mxGeometry>
        </mxCell>
        <mxCell id="jd8cTnZOVGz8yn4IlZgi-270" value="DADJ2" style="shape=partialRectangle;overflow=hidden;connectable=0;fillColor=none;align=left;strokeColor=inherit;top=0;left=0;bottom=0;right=0;spacingLeft=6;" vertex="1" parent="jd8cTnZOVGz8yn4IlZgi-268">
          <mxGeometry x="30" width="350" height="30" as="geometry">
            <mxRectangle width="350" height="30" as="alternateBounds" />
          </mxGeometry>
        </mxCell>
        <mxCell id="jd8cTnZOVGz8yn4IlZgi-271" value="[fin].[IFLOT-UbicacionTecnica]" style="shape=table;startSize=30;container=1;collapsible=1;childLayout=tableLayout;fixedRows=1;rowLines=0;fontStyle=1;align=center;resizeLast=1;rounded=1;" vertex="1" parent="1">
          <mxGeometry x="-170" y="-80" width="240" height="90" as="geometry" />
        </mxCell>
        <mxCell id="jd8cTnZOVGz8yn4IlZgi-272" value="" style="shape=tableRow;horizontal=0;startSize=0;swimlaneHead=0;swimlaneBody=0;fillColor=none;collapsible=0;dropTarget=0;points=[[0,0.5],[1,0.5]];portConstraint=eastwest;strokeColor=inherit;top=0;left=0;right=0;bottom=0;" vertex="1" parent="jd8cTnZOVGz8yn4IlZgi-271">
          <mxGeometry y="30" width="240" height="30" as="geometry" />
        </mxCell>
        <mxCell id="jd8cTnZOVGz8yn4IlZgi-273" value="" style="shape=partialRectangle;overflow=hidden;connectable=0;fillColor=none;strokeColor=inherit;top=0;left=0;bottom=0;right=0;" vertex="1" parent="jd8cTnZOVGz8yn4IlZgi-272">
          <mxGeometry width="30" height="30" as="geometry">
            <mxRectangle width="30" height="30" as="alternateBounds" />
          </mxGeometry>
        </mxCell>
        <mxCell id="jd8cTnZOVGz8yn4IlZgi-274" value="OBJNR" style="shape=partialRectangle;overflow=hidden;connectable=0;fillColor=none;align=left;strokeColor=inherit;top=0;left=0;bottom=0;right=0;spacingLeft=6;" vertex="1" parent="jd8cTnZOVGz8yn4IlZgi-272">
          <mxGeometry x="30" width="210" height="30" as="geometry">
            <mxRectangle width="210" height="30" as="alternateBounds" />
          </mxGeometry>
        </mxCell>
        <mxCell id="jd8cTnZOVGz8yn4IlZgi-275" value="" style="shape=tableRow;horizontal=0;startSize=0;swimlaneHead=0;swimlaneBody=0;fillColor=none;collapsible=0;dropTarget=0;points=[[0,0.5],[1,0.5]];portConstraint=eastwest;strokeColor=inherit;top=0;left=0;right=0;bottom=0;" vertex="1" parent="jd8cTnZOVGz8yn4IlZgi-271">
          <mxGeometry y="60" width="240" height="30" as="geometry" />
        </mxCell>
        <mxCell id="jd8cTnZOVGz8yn4IlZgi-276" value="" style="shape=partialRectangle;overflow=hidden;connectable=0;fillColor=none;strokeColor=inherit;top=0;left=0;bottom=0;right=0;" vertex="1" parent="jd8cTnZOVGz8yn4IlZgi-275">
          <mxGeometry width="30" height="30" as="geometry">
            <mxRectangle width="30" height="30" as="alternateBounds" />
          </mxGeometry>
        </mxCell>
        <mxCell id="jd8cTnZOVGz8yn4IlZgi-277" value="MAND" style="shape=partialRectangle;overflow=hidden;connectable=0;fillColor=none;align=left;strokeColor=inherit;top=0;left=0;bottom=0;right=0;spacingLeft=6;" vertex="1" parent="jd8cTnZOVGz8yn4IlZgi-275">
          <mxGeometry x="30" width="210" height="30" as="geometry">
            <mxRectangle width="210" height="30" as="alternateBounds" />
          </mxGeometry>
        </mxCell>
        <mxCell id="jd8cTnZOVGz8yn4IlZgi-278" value="[fin].[T024I-GrupoPlanGestionFinancieraMantenimiento]" style="shape=table;startSize=30;container=1;collapsible=1;childLayout=tableLayout;fixedRows=1;rowLines=0;fontStyle=1;align=center;resizeLast=1;rounded=1;fillColor=#fad7ac;strokeColor=#b46504;" vertex="1" parent="1">
          <mxGeometry x="-380" y="430" width="340" height="150" as="geometry" />
        </mxCell>
        <mxCell id="jd8cTnZOVGz8yn4IlZgi-279" value="" style="shape=tableRow;horizontal=0;startSize=0;swimlaneHead=0;swimlaneBody=0;fillColor=none;collapsible=0;dropTarget=0;points=[[0,0.5],[1,0.5]];portConstraint=eastwest;strokeColor=inherit;top=0;left=0;right=0;bottom=0;" vertex="1" parent="jd8cTnZOVGz8yn4IlZgi-278">
          <mxGeometry y="30" width="340" height="30" as="geometry" />
        </mxCell>
        <mxCell id="jd8cTnZOVGz8yn4IlZgi-280" value="" style="shape=partialRectangle;overflow=hidden;connectable=0;fillColor=none;strokeColor=inherit;top=0;left=0;bottom=0;right=0;" vertex="1" parent="jd8cTnZOVGz8yn4IlZgi-279">
          <mxGeometry width="30" height="30" as="geometry">
            <mxRectangle width="30" height="30" as="alternateBounds" />
          </mxGeometry>
        </mxCell>
        <mxCell id="jd8cTnZOVGz8yn4IlZgi-281" value="INGRP" style="shape=partialRectangle;overflow=hidden;connectable=0;fillColor=none;align=left;strokeColor=inherit;top=0;left=0;bottom=0;right=0;spacingLeft=6;" vertex="1" parent="jd8cTnZOVGz8yn4IlZgi-279">
          <mxGeometry x="30" width="310" height="30" as="geometry">
            <mxRectangle width="310" height="30" as="alternateBounds" />
          </mxGeometry>
        </mxCell>
        <mxCell id="jd8cTnZOVGz8yn4IlZgi-282" value="" style="shape=tableRow;horizontal=0;startSize=0;swimlaneHead=0;swimlaneBody=0;fillColor=none;collapsible=0;dropTarget=0;points=[[0,0.5],[1,0.5]];portConstraint=eastwest;strokeColor=inherit;top=0;left=0;right=0;bottom=0;rounded=1;" vertex="1" parent="jd8cTnZOVGz8yn4IlZgi-278">
          <mxGeometry y="60" width="340" height="30" as="geometry" />
        </mxCell>
        <mxCell id="jd8cTnZOVGz8yn4IlZgi-283" value="" style="shape=partialRectangle;overflow=hidden;connectable=0;fillColor=none;strokeColor=inherit;top=0;left=0;bottom=0;right=0;" vertex="1" parent="jd8cTnZOVGz8yn4IlZgi-282">
          <mxGeometry width="30" height="30" as="geometry">
            <mxRectangle width="30" height="30" as="alternateBounds" />
          </mxGeometry>
        </mxCell>
        <mxCell id="jd8cTnZOVGz8yn4IlZgi-284" value="IWERK" style="shape=partialRectangle;overflow=hidden;connectable=0;fillColor=none;align=left;strokeColor=inherit;top=0;left=0;bottom=0;right=0;spacingLeft=6;" vertex="1" parent="jd8cTnZOVGz8yn4IlZgi-282">
          <mxGeometry x="30" width="310" height="30" as="geometry">
            <mxRectangle width="310" height="30" as="alternateBounds" />
          </mxGeometry>
        </mxCell>
        <mxCell id="jd8cTnZOVGz8yn4IlZgi-285" value="" style="shape=tableRow;horizontal=0;startSize=0;swimlaneHead=0;swimlaneBody=0;fillColor=none;collapsible=0;dropTarget=0;points=[[0,0.5],[1,0.5]];portConstraint=eastwest;strokeColor=inherit;top=0;left=0;right=0;bottom=0;" vertex="1" parent="jd8cTnZOVGz8yn4IlZgi-278">
          <mxGeometry y="90" width="340" height="30" as="geometry" />
        </mxCell>
        <mxCell id="jd8cTnZOVGz8yn4IlZgi-286" value="" style="shape=partialRectangle;overflow=hidden;connectable=0;fillColor=none;strokeColor=inherit;top=0;left=0;bottom=0;right=0;" vertex="1" parent="jd8cTnZOVGz8yn4IlZgi-285">
          <mxGeometry width="30" height="30" as="geometry">
            <mxRectangle width="30" height="30" as="alternateBounds" />
          </mxGeometry>
        </mxCell>
        <mxCell id="jd8cTnZOVGz8yn4IlZgi-287" value="MAND" style="shape=partialRectangle;overflow=hidden;connectable=0;fillColor=none;align=left;strokeColor=inherit;top=0;left=0;bottom=0;right=0;spacingLeft=6;" vertex="1" parent="jd8cTnZOVGz8yn4IlZgi-285">
          <mxGeometry x="30" width="310" height="30" as="geometry">
            <mxRectangle width="310" height="30" as="alternateBounds" />
          </mxGeometry>
        </mxCell>
        <mxCell id="jd8cTnZOVGz8yn4IlZgi-288" value="" style="shape=tableRow;horizontal=0;startSize=0;swimlaneHead=0;swimlaneBody=0;fillColor=none;collapsible=0;dropTarget=0;points=[[0,0.5],[1,0.5]];portConstraint=eastwest;strokeColor=inherit;top=0;left=0;right=0;bottom=0;" vertex="1" parent="jd8cTnZOVGz8yn4IlZgi-278">
          <mxGeometry y="120" width="340" height="30" as="geometry" />
        </mxCell>
        <mxCell id="jd8cTnZOVGz8yn4IlZgi-289" value="" style="shape=partialRectangle;overflow=hidden;connectable=0;fillColor=none;strokeColor=inherit;top=0;left=0;bottom=0;right=0;" vertex="1" parent="jd8cTnZOVGz8yn4IlZgi-288">
          <mxGeometry width="30" height="30" as="geometry">
            <mxRectangle width="30" height="30" as="alternateBounds" />
          </mxGeometry>
        </mxCell>
        <mxCell id="jd8cTnZOVGz8yn4IlZgi-290" value="INNAM" style="shape=partialRectangle;overflow=hidden;connectable=0;fillColor=none;align=left;strokeColor=inherit;top=0;left=0;bottom=0;right=0;spacingLeft=6;" vertex="1" parent="jd8cTnZOVGz8yn4IlZgi-288">
          <mxGeometry x="30" width="310" height="30" as="geometry">
            <mxRectangle width="310" height="30" as="alternateBounds" />
          </mxGeometry>
        </mxCell>
        <mxCell id="jd8cTnZOVGz8yn4IlZgi-291" value="[fin].[T353I_T-DenominacionClaseActividadMantenimiento]" style="shape=table;startSize=30;container=1;collapsible=1;childLayout=tableLayout;fixedRows=1;rowLines=0;fontStyle=1;align=center;resizeLast=1;rounded=1;fillColor=#d5e8d4;strokeColor=#82b366;gradientColor=#97d077;" vertex="1" parent="1">
          <mxGeometry x="20" y="1440" width="380" height="120" as="geometry" />
        </mxCell>
        <mxCell id="jd8cTnZOVGz8yn4IlZgi-292" value="" style="shape=tableRow;horizontal=0;startSize=0;swimlaneHead=0;swimlaneBody=0;fillColor=none;collapsible=0;dropTarget=0;points=[[0,0.5],[1,0.5]];portConstraint=eastwest;strokeColor=inherit;top=0;left=0;right=0;bottom=0;" vertex="1" parent="jd8cTnZOVGz8yn4IlZgi-291">
          <mxGeometry y="30" width="380" height="30" as="geometry" />
        </mxCell>
        <mxCell id="jd8cTnZOVGz8yn4IlZgi-293" value="" style="shape=partialRectangle;overflow=hidden;connectable=0;fillColor=none;strokeColor=inherit;top=0;left=0;bottom=0;right=0;" vertex="1" parent="jd8cTnZOVGz8yn4IlZgi-292">
          <mxGeometry width="30" height="30" as="geometry">
            <mxRectangle width="30" height="30" as="alternateBounds" />
          </mxGeometry>
        </mxCell>
        <mxCell id="jd8cTnZOVGz8yn4IlZgi-294" value="ILART" style="shape=partialRectangle;overflow=hidden;connectable=0;fillColor=none;align=left;strokeColor=inherit;top=0;left=0;bottom=0;right=0;spacingLeft=6;" vertex="1" parent="jd8cTnZOVGz8yn4IlZgi-292">
          <mxGeometry x="30" width="350" height="30" as="geometry">
            <mxRectangle width="350" height="30" as="alternateBounds" />
          </mxGeometry>
        </mxCell>
        <mxCell id="jd8cTnZOVGz8yn4IlZgi-295" value="" style="shape=tableRow;horizontal=0;startSize=0;swimlaneHead=0;swimlaneBody=0;fillColor=none;collapsible=0;dropTarget=0;points=[[0,0.5],[1,0.5]];portConstraint=eastwest;strokeColor=inherit;top=0;left=0;right=0;bottom=0;" vertex="1" parent="jd8cTnZOVGz8yn4IlZgi-291">
          <mxGeometry y="60" width="380" height="30" as="geometry" />
        </mxCell>
        <mxCell id="jd8cTnZOVGz8yn4IlZgi-296" value="" style="shape=partialRectangle;overflow=hidden;connectable=0;fillColor=none;strokeColor=inherit;top=0;left=0;bottom=0;right=0;" vertex="1" parent="jd8cTnZOVGz8yn4IlZgi-295">
          <mxGeometry width="30" height="30" as="geometry">
            <mxRectangle width="30" height="30" as="alternateBounds" />
          </mxGeometry>
        </mxCell>
        <mxCell id="jd8cTnZOVGz8yn4IlZgi-297" value="ILATX" style="shape=partialRectangle;overflow=hidden;connectable=0;fillColor=none;align=left;strokeColor=inherit;top=0;left=0;bottom=0;right=0;spacingLeft=6;" vertex="1" parent="jd8cTnZOVGz8yn4IlZgi-295">
          <mxGeometry x="30" width="350" height="30" as="geometry">
            <mxRectangle width="350" height="30" as="alternateBounds" />
          </mxGeometry>
        </mxCell>
        <mxCell id="jd8cTnZOVGz8yn4IlZgi-298" value="" style="shape=tableRow;horizontal=0;startSize=0;swimlaneHead=0;swimlaneBody=0;fillColor=none;collapsible=0;dropTarget=0;points=[[0,0.5],[1,0.5]];portConstraint=eastwest;strokeColor=inherit;top=0;left=0;right=0;bottom=0;" vertex="1" parent="jd8cTnZOVGz8yn4IlZgi-291">
          <mxGeometry y="90" width="380" height="30" as="geometry" />
        </mxCell>
        <mxCell id="jd8cTnZOVGz8yn4IlZgi-299" value="" style="shape=partialRectangle;overflow=hidden;connectable=0;fillColor=none;strokeColor=inherit;top=0;left=0;bottom=0;right=0;" vertex="1" parent="jd8cTnZOVGz8yn4IlZgi-298">
          <mxGeometry width="30" height="30" as="geometry">
            <mxRectangle width="30" height="30" as="alternateBounds" />
          </mxGeometry>
        </mxCell>
        <mxCell id="jd8cTnZOVGz8yn4IlZgi-300" value="MAND" style="shape=partialRectangle;overflow=hidden;connectable=0;fillColor=none;align=left;strokeColor=inherit;top=0;left=0;bottom=0;right=0;spacingLeft=6;" vertex="1" parent="jd8cTnZOVGz8yn4IlZgi-298">
          <mxGeometry x="30" width="350" height="30" as="geometry">
            <mxRectangle width="350" height="30" as="alternateBounds" />
          </mxGeometry>
        </mxCell>
        <mxCell id="jd8cTnZOVGz8yn4IlZgi-301" value="[fin].[IFLOTX-UbicacionTecnicaTextoBreve]" style="shape=table;startSize=30;container=1;collapsible=1;childLayout=tableLayout;fixedRows=1;rowLines=0;fontStyle=1;align=center;resizeLast=1;rounded=1;fillColor=#f5f5f5;gradientColor=#b3b3b3;strokeColor=#666666;" vertex="1" parent="1">
          <mxGeometry x="-360" y="830" width="300" height="120" as="geometry" />
        </mxCell>
        <mxCell id="jd8cTnZOVGz8yn4IlZgi-302" value="" style="shape=tableRow;horizontal=0;startSize=0;swimlaneHead=0;swimlaneBody=0;fillColor=none;collapsible=0;dropTarget=0;points=[[0,0.5],[1,0.5]];portConstraint=eastwest;strokeColor=inherit;top=0;left=0;right=0;bottom=0;" vertex="1" parent="jd8cTnZOVGz8yn4IlZgi-301">
          <mxGeometry y="30" width="300" height="30" as="geometry" />
        </mxCell>
        <mxCell id="jd8cTnZOVGz8yn4IlZgi-303" value="" style="shape=partialRectangle;overflow=hidden;connectable=0;fillColor=none;strokeColor=inherit;top=0;left=0;bottom=0;right=0;" vertex="1" parent="jd8cTnZOVGz8yn4IlZgi-302">
          <mxGeometry width="30" height="30" as="geometry">
            <mxRectangle width="30" height="30" as="alternateBounds" />
          </mxGeometry>
        </mxCell>
        <mxCell id="jd8cTnZOVGz8yn4IlZgi-304" value="TPLNR" style="shape=partialRectangle;overflow=hidden;connectable=0;fillColor=none;align=left;strokeColor=inherit;top=0;left=0;bottom=0;right=0;spacingLeft=6;" vertex="1" parent="jd8cTnZOVGz8yn4IlZgi-302">
          <mxGeometry x="30" width="270" height="30" as="geometry">
            <mxRectangle width="270" height="30" as="alternateBounds" />
          </mxGeometry>
        </mxCell>
        <mxCell id="jd8cTnZOVGz8yn4IlZgi-305" value="" style="shape=tableRow;horizontal=0;startSize=0;swimlaneHead=0;swimlaneBody=0;fillColor=none;collapsible=0;dropTarget=0;points=[[0,0.5],[1,0.5]];portConstraint=eastwest;strokeColor=inherit;top=0;left=0;right=0;bottom=0;" vertex="1" parent="jd8cTnZOVGz8yn4IlZgi-301">
          <mxGeometry y="60" width="300" height="30" as="geometry" />
        </mxCell>
        <mxCell id="jd8cTnZOVGz8yn4IlZgi-306" value="" style="shape=partialRectangle;overflow=hidden;connectable=0;fillColor=none;strokeColor=inherit;top=0;left=0;bottom=0;right=0;" vertex="1" parent="jd8cTnZOVGz8yn4IlZgi-305">
          <mxGeometry width="30" height="30" as="geometry">
            <mxRectangle width="30" height="30" as="alternateBounds" />
          </mxGeometry>
        </mxCell>
        <mxCell id="jd8cTnZOVGz8yn4IlZgi-307" value="MAND" style="shape=partialRectangle;overflow=hidden;connectable=0;fillColor=none;align=left;strokeColor=inherit;top=0;left=0;bottom=0;right=0;spacingLeft=6;" vertex="1" parent="jd8cTnZOVGz8yn4IlZgi-305">
          <mxGeometry x="30" width="270" height="30" as="geometry">
            <mxRectangle width="270" height="30" as="alternateBounds" />
          </mxGeometry>
        </mxCell>
        <mxCell id="jd8cTnZOVGz8yn4IlZgi-308" value="" style="shape=tableRow;horizontal=0;startSize=0;swimlaneHead=0;swimlaneBody=0;fillColor=none;collapsible=0;dropTarget=0;points=[[0,0.5],[1,0.5]];portConstraint=eastwest;strokeColor=inherit;top=0;left=0;right=0;bottom=0;" vertex="1" parent="jd8cTnZOVGz8yn4IlZgi-301">
          <mxGeometry y="90" width="300" height="30" as="geometry" />
        </mxCell>
        <mxCell id="jd8cTnZOVGz8yn4IlZgi-309" value="" style="shape=partialRectangle;overflow=hidden;connectable=0;fillColor=none;strokeColor=inherit;top=0;left=0;bottom=0;right=0;" vertex="1" parent="jd8cTnZOVGz8yn4IlZgi-308">
          <mxGeometry width="30" height="30" as="geometry">
            <mxRectangle width="30" height="30" as="alternateBounds" />
          </mxGeometry>
        </mxCell>
        <mxCell id="jd8cTnZOVGz8yn4IlZgi-310" value="PLTXT" style="shape=partialRectangle;overflow=hidden;connectable=0;fillColor=none;align=left;strokeColor=inherit;top=0;left=0;bottom=0;right=0;spacingLeft=6;" vertex="1" parent="jd8cTnZOVGz8yn4IlZgi-308">
          <mxGeometry x="30" width="270" height="30" as="geometry">
            <mxRectangle width="270" height="30" as="alternateBounds" />
          </mxGeometry>
        </mxCell>
        <mxCell id="jd8cTnZOVGz8yn4IlZgi-311" value="[fin].[EQKT-TextoBreveEquipo]" style="shape=table;startSize=30;container=1;collapsible=1;childLayout=tableLayout;fixedRows=1;rowLines=0;fontStyle=1;align=center;resizeLast=1;rounded=1;fillColor=#fff2cc;gradientColor=#ffd966;strokeColor=#d6b656;" vertex="1" parent="1">
          <mxGeometry x="170" y="1290" width="230" height="120" as="geometry" />
        </mxCell>
        <mxCell id="jd8cTnZOVGz8yn4IlZgi-312" value="" style="shape=tableRow;horizontal=0;startSize=0;swimlaneHead=0;swimlaneBody=0;fillColor=none;collapsible=0;dropTarget=0;points=[[0,0.5],[1,0.5]];portConstraint=eastwest;strokeColor=inherit;top=0;left=0;right=0;bottom=0;" vertex="1" parent="jd8cTnZOVGz8yn4IlZgi-311">
          <mxGeometry y="30" width="230" height="30" as="geometry" />
        </mxCell>
        <mxCell id="jd8cTnZOVGz8yn4IlZgi-313" value="" style="shape=partialRectangle;overflow=hidden;connectable=0;fillColor=none;strokeColor=inherit;top=0;left=0;bottom=0;right=0;" vertex="1" parent="jd8cTnZOVGz8yn4IlZgi-312">
          <mxGeometry width="30" height="30" as="geometry">
            <mxRectangle width="30" height="30" as="alternateBounds" />
          </mxGeometry>
        </mxCell>
        <mxCell id="jd8cTnZOVGz8yn4IlZgi-314" value="EQUNR" style="shape=partialRectangle;overflow=hidden;connectable=0;fillColor=none;align=left;strokeColor=inherit;top=0;left=0;bottom=0;right=0;spacingLeft=6;" vertex="1" parent="jd8cTnZOVGz8yn4IlZgi-312">
          <mxGeometry x="30" width="200" height="30" as="geometry">
            <mxRectangle width="200" height="30" as="alternateBounds" />
          </mxGeometry>
        </mxCell>
        <mxCell id="jd8cTnZOVGz8yn4IlZgi-315" value="" style="shape=tableRow;horizontal=0;startSize=0;swimlaneHead=0;swimlaneBody=0;fillColor=none;collapsible=0;dropTarget=0;points=[[0,0.5],[1,0.5]];portConstraint=eastwest;strokeColor=inherit;top=0;left=0;right=0;bottom=0;" vertex="1" parent="jd8cTnZOVGz8yn4IlZgi-311">
          <mxGeometry y="60" width="230" height="30" as="geometry" />
        </mxCell>
        <mxCell id="jd8cTnZOVGz8yn4IlZgi-316" value="" style="shape=partialRectangle;overflow=hidden;connectable=0;fillColor=none;strokeColor=inherit;top=0;left=0;bottom=0;right=0;" vertex="1" parent="jd8cTnZOVGz8yn4IlZgi-315">
          <mxGeometry width="30" height="30" as="geometry">
            <mxRectangle width="30" height="30" as="alternateBounds" />
          </mxGeometry>
        </mxCell>
        <mxCell id="jd8cTnZOVGz8yn4IlZgi-317" value="MAND" style="shape=partialRectangle;overflow=hidden;connectable=0;fillColor=none;align=left;strokeColor=inherit;top=0;left=0;bottom=0;right=0;spacingLeft=6;" vertex="1" parent="jd8cTnZOVGz8yn4IlZgi-315">
          <mxGeometry x="30" width="200" height="30" as="geometry">
            <mxRectangle width="200" height="30" as="alternateBounds" />
          </mxGeometry>
        </mxCell>
        <mxCell id="jd8cTnZOVGz8yn4IlZgi-318" value="" style="shape=tableRow;horizontal=0;startSize=0;swimlaneHead=0;swimlaneBody=0;fillColor=none;collapsible=0;dropTarget=0;points=[[0,0.5],[1,0.5]];portConstraint=eastwest;strokeColor=inherit;top=0;left=0;right=0;bottom=0;" vertex="1" parent="jd8cTnZOVGz8yn4IlZgi-311">
          <mxGeometry y="90" width="230" height="30" as="geometry" />
        </mxCell>
        <mxCell id="jd8cTnZOVGz8yn4IlZgi-319" value="" style="shape=partialRectangle;overflow=hidden;connectable=0;fillColor=none;strokeColor=inherit;top=0;left=0;bottom=0;right=0;" vertex="1" parent="jd8cTnZOVGz8yn4IlZgi-318">
          <mxGeometry width="30" height="30" as="geometry">
            <mxRectangle width="30" height="30" as="alternateBounds" />
          </mxGeometry>
        </mxCell>
        <mxCell id="jd8cTnZOVGz8yn4IlZgi-320" value="EQKTX" style="shape=partialRectangle;overflow=hidden;connectable=0;fillColor=none;align=left;strokeColor=inherit;top=0;left=0;bottom=0;right=0;spacingLeft=6;" vertex="1" parent="jd8cTnZOVGz8yn4IlZgi-318">
          <mxGeometry x="30" width="200" height="30" as="geometry">
            <mxRectangle width="200" height="30" as="alternateBounds" />
          </mxGeometry>
        </mxCell>
        <mxCell id="jd8cTnZOVGz8yn4IlZgi-367" value="[fin].[ILOA-EmplazamientoImputacionObjetoMT]" style="shape=table;startSize=30;container=1;collapsible=1;childLayout=tableLayout;fixedRows=1;rowLines=0;fontStyle=1;align=center;resizeLast=1;rounded=1;fillColor=#fa6800;fontColor=#000000;strokeColor=#C73500;" vertex="1" parent="1">
          <mxGeometry x="-380" y="620" width="340" height="120" as="geometry" />
        </mxCell>
        <mxCell id="jd8cTnZOVGz8yn4IlZgi-368" value="" style="shape=tableRow;horizontal=0;startSize=0;swimlaneHead=0;swimlaneBody=0;fillColor=none;collapsible=0;dropTarget=0;points=[[0,0.5],[1,0.5]];portConstraint=eastwest;strokeColor=inherit;top=0;left=0;right=0;bottom=0;" vertex="1" parent="jd8cTnZOVGz8yn4IlZgi-367">
          <mxGeometry y="30" width="340" height="30" as="geometry" />
        </mxCell>
        <mxCell id="jd8cTnZOVGz8yn4IlZgi-369" value="" style="shape=partialRectangle;overflow=hidden;connectable=0;fillColor=none;strokeColor=inherit;top=0;left=0;bottom=0;right=0;" vertex="1" parent="jd8cTnZOVGz8yn4IlZgi-368">
          <mxGeometry width="30" height="30" as="geometry">
            <mxRectangle width="30" height="30" as="alternateBounds" />
          </mxGeometry>
        </mxCell>
        <mxCell id="jd8cTnZOVGz8yn4IlZgi-370" value="ILOAN" style="shape=partialRectangle;overflow=hidden;connectable=0;fillColor=none;align=left;strokeColor=inherit;top=0;left=0;bottom=0;right=0;spacingLeft=6;" vertex="1" parent="jd8cTnZOVGz8yn4IlZgi-368">
          <mxGeometry x="30" width="310" height="30" as="geometry">
            <mxRectangle width="310" height="30" as="alternateBounds" />
          </mxGeometry>
        </mxCell>
        <mxCell id="jd8cTnZOVGz8yn4IlZgi-371" value="" style="shape=tableRow;horizontal=0;startSize=0;swimlaneHead=0;swimlaneBody=0;fillColor=none;collapsible=0;dropTarget=0;points=[[0,0.5],[1,0.5]];portConstraint=eastwest;strokeColor=inherit;top=0;left=0;right=0;bottom=0;" vertex="1" parent="jd8cTnZOVGz8yn4IlZgi-367">
          <mxGeometry y="60" width="340" height="30" as="geometry" />
        </mxCell>
        <mxCell id="jd8cTnZOVGz8yn4IlZgi-372" value="" style="shape=partialRectangle;overflow=hidden;connectable=0;fillColor=none;strokeColor=inherit;top=0;left=0;bottom=0;right=0;" vertex="1" parent="jd8cTnZOVGz8yn4IlZgi-371">
          <mxGeometry width="30" height="30" as="geometry">
            <mxRectangle width="30" height="30" as="alternateBounds" />
          </mxGeometry>
        </mxCell>
        <mxCell id="jd8cTnZOVGz8yn4IlZgi-373" value="MAND" style="shape=partialRectangle;overflow=hidden;connectable=0;fillColor=none;align=left;strokeColor=inherit;top=0;left=0;bottom=0;right=0;spacingLeft=6;" vertex="1" parent="jd8cTnZOVGz8yn4IlZgi-371">
          <mxGeometry x="30" width="310" height="30" as="geometry">
            <mxRectangle width="310" height="30" as="alternateBounds" />
          </mxGeometry>
        </mxCell>
        <mxCell id="jd8cTnZOVGz8yn4IlZgi-374" value="" style="shape=tableRow;horizontal=0;startSize=0;swimlaneHead=0;swimlaneBody=0;fillColor=none;collapsible=0;dropTarget=0;points=[[0,0.5],[1,0.5]];portConstraint=eastwest;strokeColor=inherit;top=0;left=0;right=0;bottom=0;" vertex="1" parent="jd8cTnZOVGz8yn4IlZgi-367">
          <mxGeometry y="90" width="340" height="30" as="geometry" />
        </mxCell>
        <mxCell id="jd8cTnZOVGz8yn4IlZgi-375" value="" style="shape=partialRectangle;overflow=hidden;connectable=0;fillColor=none;strokeColor=inherit;top=0;left=0;bottom=0;right=0;" vertex="1" parent="jd8cTnZOVGz8yn4IlZgi-374">
          <mxGeometry width="30" height="30" as="geometry">
            <mxRectangle width="30" height="30" as="alternateBounds" />
          </mxGeometry>
        </mxCell>
        <mxCell id="jd8cTnZOVGz8yn4IlZgi-376" value="TPLNR" style="shape=partialRectangle;overflow=hidden;connectable=0;fillColor=none;align=left;strokeColor=inherit;top=0;left=0;bottom=0;right=0;spacingLeft=6;" vertex="1" parent="jd8cTnZOVGz8yn4IlZgi-374">
          <mxGeometry x="30" width="310" height="30" as="geometry">
            <mxRectangle width="310" height="30" as="alternateBounds" />
          </mxGeometry>
        </mxCell>
        <mxCell id="jd8cTnZOVGz8yn4IlZgi-377" value="" style="edgeStyle=entityRelationEdgeStyle;endArrow=ERzeroToMany;startArrow=ERone;endFill=1;startFill=0;exitX=1;exitY=0.5;exitDx=0;exitDy=0;entryX=0;entryY=0.5;entryDx=0;entryDy=0;" edge="1" parent="1" source="jd8cTnZOVGz8yn4IlZgi-368" target="jd8cTnZOVGz8yn4IlZgi-199">
          <mxGeometry width="100" height="100" relative="1" as="geometry">
            <mxPoint x="410" y="1415" as="sourcePoint" />
            <mxPoint x="-380" y="1380" as="targetPoint" />
          </mxGeometry>
        </mxCell>
        <mxCell id="jd8cTnZOVGz8yn4IlZgi-378" value="" style="edgeStyle=entityRelationEdgeStyle;endArrow=ERzeroToMany;startArrow=ERone;endFill=1;startFill=0;" edge="1" parent="1" target="jd8cTnZOVGz8yn4IlZgi-302">
          <mxGeometry width="100" height="100" relative="1" as="geometry">
            <mxPoint x="-40" y="660" as="sourcePoint" />
            <mxPoint x="130" y="575" as="targetPoint" />
            <Array as="points">
              <mxPoint x="-10" y="720" />
            </Array>
          </mxGeometry>
        </mxCell>
        <mxCell id="jd8cTnZOVGz8yn4IlZgi-379" value="" style="edgeStyle=entityRelationEdgeStyle;endArrow=ERzeroToMany;startArrow=ERone;endFill=1;startFill=0;exitX=1;exitY=0.5;exitDx=0;exitDy=0;entryX=0;entryY=0.5;entryDx=0;entryDy=0;" edge="1" parent="1" source="jd8cTnZOVGz8yn4IlZgi-169" target="jd8cTnZOVGz8yn4IlZgi-120">
          <mxGeometry width="100" height="100" relative="1" as="geometry">
            <mxPoint x="-20" y="585" as="sourcePoint" />
            <mxPoint x="140" y="585" as="targetPoint" />
          </mxGeometry>
        </mxCell>
        <mxCell id="jd8cTnZOVGz8yn4IlZgi-380" value="" style="edgeStyle=entityRelationEdgeStyle;endArrow=ERzeroToMany;startArrow=ERone;endFill=1;startFill=0;exitX=1;exitY=0.5;exitDx=0;exitDy=0;entryX=0;entryY=0.5;entryDx=0;entryDy=0;" edge="1" parent="1" source="jd8cTnZOVGz8yn4IlZgi-172" target="jd8cTnZOVGz8yn4IlZgi-179">
          <mxGeometry width="100" height="100" relative="1" as="geometry">
            <mxPoint x="-10" y="595" as="sourcePoint" />
            <mxPoint x="150" y="595" as="targetPoint" />
          </mxGeometry>
        </mxCell>
        <mxCell id="jd8cTnZOVGz8yn4IlZgi-381" value="" style="edgeStyle=entityRelationEdgeStyle;endArrow=ERzeroToMany;startArrow=ERone;endFill=1;startFill=0;exitX=0.993;exitY=-0.293;exitDx=0;exitDy=0;exitPerimeter=0;" edge="1" parent="1" source="jd8cTnZOVGz8yn4IlZgi-193" target="jd8cTnZOVGz8yn4IlZgi-120">
          <mxGeometry width="100" height="100" relative="1" as="geometry">
            <mxPoint y="605" as="sourcePoint" />
            <mxPoint x="160" y="605" as="targetPoint" />
            <Array as="points">
              <mxPoint x="70" y="620" />
            </Array>
          </mxGeometry>
        </mxCell>
        <mxCell id="jd8cTnZOVGz8yn4IlZgi-382" value="" style="edgeStyle=entityRelationEdgeStyle;endArrow=ERzeroToMany;startArrow=ERone;endFill=1;startFill=0;exitX=1;exitY=0.5;exitDx=0;exitDy=0;entryX=0;entryY=0.5;entryDx=0;entryDy=0;" edge="1" parent="1" source="jd8cTnZOVGz8yn4IlZgi-230" target="jd8cTnZOVGz8yn4IlZgi-193">
          <mxGeometry width="100" height="100" relative="1" as="geometry">
            <mxPoint x="-60" y="90" as="sourcePoint" />
            <mxPoint x="80" y="160" as="targetPoint" />
          </mxGeometry>
        </mxCell>
        <mxCell id="jd8cTnZOVGz8yn4IlZgi-383" value="[fin].[CRTX-RecursoProduccionEntidad]" style="shape=table;startSize=30;container=1;collapsible=1;childLayout=tableLayout;fixedRows=1;rowLines=0;fontStyle=1;align=center;resizeLast=1;fillColor=#bac8d3;strokeColor=#23445d;" vertex="1" parent="1">
          <mxGeometry x="-240" y="110" width="280" height="120" as="geometry" />
        </mxCell>
        <mxCell id="jd8cTnZOVGz8yn4IlZgi-384" value="" style="shape=tableRow;horizontal=0;startSize=0;swimlaneHead=0;swimlaneBody=0;fillColor=none;collapsible=0;dropTarget=0;points=[[0,0.5],[1,0.5]];portConstraint=eastwest;strokeColor=inherit;top=0;left=0;right=0;bottom=0;" vertex="1" parent="jd8cTnZOVGz8yn4IlZgi-383">
          <mxGeometry y="30" width="280" height="30" as="geometry" />
        </mxCell>
        <mxCell id="jd8cTnZOVGz8yn4IlZgi-385" value="" style="shape=partialRectangle;overflow=hidden;connectable=0;fillColor=none;strokeColor=inherit;top=0;left=0;bottom=0;right=0;" vertex="1" parent="jd8cTnZOVGz8yn4IlZgi-384">
          <mxGeometry width="30" height="30" as="geometry">
            <mxRectangle width="30" height="30" as="alternateBounds" />
          </mxGeometry>
        </mxCell>
        <mxCell id="jd8cTnZOVGz8yn4IlZgi-386" value="OBJID" style="shape=partialRectangle;overflow=hidden;connectable=0;fillColor=none;align=left;strokeColor=inherit;top=0;left=0;bottom=0;right=0;spacingLeft=6;" vertex="1" parent="jd8cTnZOVGz8yn4IlZgi-384">
          <mxGeometry x="30" width="250" height="30" as="geometry">
            <mxRectangle width="250" height="30" as="alternateBounds" />
          </mxGeometry>
        </mxCell>
        <mxCell id="jd8cTnZOVGz8yn4IlZgi-387" value="" style="shape=tableRow;horizontal=0;startSize=0;swimlaneHead=0;swimlaneBody=0;fillColor=none;collapsible=0;dropTarget=0;points=[[0,0.5],[1,0.5]];portConstraint=eastwest;strokeColor=inherit;top=0;left=0;right=0;bottom=0;" vertex="1" parent="jd8cTnZOVGz8yn4IlZgi-383">
          <mxGeometry y="60" width="280" height="30" as="geometry" />
        </mxCell>
        <mxCell id="jd8cTnZOVGz8yn4IlZgi-388" value="" style="shape=partialRectangle;overflow=hidden;connectable=0;fillColor=none;strokeColor=inherit;top=0;left=0;bottom=0;right=0;" vertex="1" parent="jd8cTnZOVGz8yn4IlZgi-387">
          <mxGeometry width="30" height="30" as="geometry">
            <mxRectangle width="30" height="30" as="alternateBounds" />
          </mxGeometry>
        </mxCell>
        <mxCell id="jd8cTnZOVGz8yn4IlZgi-389" value="MAND" style="shape=partialRectangle;overflow=hidden;connectable=0;fillColor=none;align=left;strokeColor=inherit;top=0;left=0;bottom=0;right=0;spacingLeft=6;" vertex="1" parent="jd8cTnZOVGz8yn4IlZgi-387">
          <mxGeometry x="30" width="250" height="30" as="geometry">
            <mxRectangle width="250" height="30" as="alternateBounds" />
          </mxGeometry>
        </mxCell>
        <mxCell id="jd8cTnZOVGz8yn4IlZgi-390" value="" style="shape=tableRow;horizontal=0;startSize=0;swimlaneHead=0;swimlaneBody=0;fillColor=none;collapsible=0;dropTarget=0;points=[[0,0.5],[1,0.5]];portConstraint=eastwest;strokeColor=inherit;top=0;left=0;right=0;bottom=0;" vertex="1" parent="jd8cTnZOVGz8yn4IlZgi-383">
          <mxGeometry y="90" width="280" height="30" as="geometry" />
        </mxCell>
        <mxCell id="jd8cTnZOVGz8yn4IlZgi-391" value="" style="shape=partialRectangle;overflow=hidden;connectable=0;fillColor=none;strokeColor=inherit;top=0;left=0;bottom=0;right=0;" vertex="1" parent="jd8cTnZOVGz8yn4IlZgi-390">
          <mxGeometry width="30" height="30" as="geometry">
            <mxRectangle width="30" height="30" as="alternateBounds" />
          </mxGeometry>
        </mxCell>
        <mxCell id="jd8cTnZOVGz8yn4IlZgi-392" value="KTEXT" style="shape=partialRectangle;overflow=hidden;connectable=0;fillColor=none;align=left;strokeColor=inherit;top=0;left=0;bottom=0;right=0;spacingLeft=6;" vertex="1" parent="jd8cTnZOVGz8yn4IlZgi-390">
          <mxGeometry x="30" width="250" height="30" as="geometry">
            <mxRectangle width="250" height="30" as="alternateBounds" />
          </mxGeometry>
        </mxCell>
        <mxCell id="jd8cTnZOVGz8yn4IlZgi-393" value="" style="edgeStyle=entityRelationEdgeStyle;endArrow=ERzeroToMany;startArrow=ERone;endFill=1;startFill=0;exitX=1;exitY=0.5;exitDx=0;exitDy=0;entryX=1;entryY=0.5;entryDx=0;entryDy=0;" edge="1" parent="1" source="jd8cTnZOVGz8yn4IlZgi-384" target="jd8cTnZOVGz8yn4IlZgi-230">
          <mxGeometry width="100" height="100" relative="1" as="geometry">
            <mxPoint x="90" y="385" as="sourcePoint" />
            <mxPoint x="130" y="515" as="targetPoint" />
          </mxGeometry>
        </mxCell>
        <mxCell id="jd8cTnZOVGz8yn4IlZgi-395" value="" style="edgeStyle=entityRelationEdgeStyle;endArrow=ERzeroToMany;startArrow=ERone;endFill=1;startFill=0;exitX=1;exitY=0.5;exitDx=0;exitDy=0;entryX=1;entryY=0.5;entryDx=0;entryDy=0;" edge="1" parent="1" source="jd8cTnZOVGz8yn4IlZgi-141" target="jd8cTnZOVGz8yn4IlZgi-237">
          <mxGeometry width="100" height="100" relative="1" as="geometry">
            <mxPoint x="100" y="-215" as="sourcePoint" />
            <mxPoint x="150" y="335" as="targetPoint" />
          </mxGeometry>
        </mxCell>
        <mxCell id="jd8cTnZOVGz8yn4IlZgi-396" value="" style="edgeStyle=entityRelationEdgeStyle;endArrow=ERzeroToMany;startArrow=ERone;endFill=1;startFill=0;exitX=1;exitY=0.5;exitDx=0;exitDy=0;entryX=1;entryY=0.5;entryDx=0;entryDy=0;" edge="1" parent="1" source="jd8cTnZOVGz8yn4IlZgi-234" target="jd8cTnZOVGz8yn4IlZgi-262">
          <mxGeometry width="100" height="100" relative="1" as="geometry">
            <mxPoint x="410" y="1535" as="sourcePoint" />
            <mxPoint x="410" y="695" as="targetPoint" />
          </mxGeometry>
        </mxCell>
        <mxCell id="jd8cTnZOVGz8yn4IlZgi-397" value="" style="edgeStyle=entityRelationEdgeStyle;endArrow=ERzeroToMany;startArrow=ERone;endFill=1;startFill=0;exitX=1;exitY=0.5;exitDx=0;exitDy=0;entryX=0;entryY=0.5;entryDx=0;entryDy=0;" edge="1" parent="1" source="jd8cTnZOVGz8yn4IlZgi-272" target="jd8cTnZOVGz8yn4IlZgi-120">
          <mxGeometry width="100" height="100" relative="1" as="geometry">
            <mxPoint x="69" y="-126" as="sourcePoint" />
            <mxPoint x="119" y="-126" as="targetPoint" />
          </mxGeometry>
        </mxCell>
        <mxCell id="jd8cTnZOVGz8yn4IlZgi-399" value="" style="edgeStyle=entityRelationEdgeStyle;endArrow=ERzeroToMany;startArrow=ERone;endFill=1;startFill=0;exitX=1;exitY=0.5;exitDx=0;exitDy=0;entryX=0;entryY=0.5;entryDx=0;entryDy=0;" edge="1" parent="1" source="jd8cTnZOVGz8yn4IlZgi-282" target="jd8cTnZOVGz8yn4IlZgi-196">
          <mxGeometry width="100" height="100" relative="1" as="geometry">
            <mxPoint x="-30" y="675" as="sourcePoint" />
            <mxPoint x="130" y="575" as="targetPoint" />
          </mxGeometry>
        </mxCell>
        <mxCell id="jd8cTnZOVGz8yn4IlZgi-400" value="" style="edgeStyle=entityRelationEdgeStyle;endArrow=ERzeroToMany;startArrow=ERone;endFill=1;startFill=0;exitX=1;exitY=0.5;exitDx=0;exitDy=0;entryX=1;entryY=0.5;entryDx=0;entryDy=0;" edge="1" parent="1" source="jd8cTnZOVGz8yn4IlZgi-292" target="jd8cTnZOVGz8yn4IlZgi-208">
          <mxGeometry width="100" height="100" relative="1" as="geometry">
            <mxPoint x="410" y="1535" as="sourcePoint" />
            <mxPoint x="410" y="695" as="targetPoint" />
            <Array as="points">
              <mxPoint x="420" y="930" />
              <mxPoint x="440" y="910" />
            </Array>
          </mxGeometry>
        </mxCell>
      </root>
    </mxGraphModel>
  </diagram>
</mxfile>
